<mxfile host="app.diagrams.net" agent="Mozilla/5.0 (Windows NT 10.0; Win64; x64) AppleWebKit/537.36 (KHTML, like Gecko) Chrome/122.0.6261.95 Safari/537.36" version="24.7.17">
  <diagram name="Page-1" id="ysQB6FGy4KHB-MlocIQW">
    <mxGraphModel dx="1434" dy="762" grid="0" gridSize="10" guides="1" tooltips="1" connect="1" arrows="1" fold="1" page="1" pageScale="1" pageWidth="827" pageHeight="1169" math="0" shadow="0">
      <root>
        <mxCell id="0" />
        <mxCell id="1" parent="0" />
        <mxCell id="VuYwsjZh1FK1wvgzzFoD-1" value="" style="rounded=0;whiteSpace=wrap;html=1;dashed=1;" parent="1" vertex="1">
          <mxGeometry x="561" y="596" width="136" height="154" as="geometry" />
        </mxCell>
        <mxCell id="iiWaj7jSBL8KXbxFWDxD-99" value="" style="rounded=0;whiteSpace=wrap;html=1;dashed=1;" parent="1" vertex="1">
          <mxGeometry x="276" y="359" width="265" height="178" as="geometry" />
        </mxCell>
        <mxCell id="iiWaj7jSBL8KXbxFWDxD-98" value="" style="rounded=0;whiteSpace=wrap;html=1;dashed=1;" parent="1" vertex="1">
          <mxGeometry x="218" y="597" width="243" height="152" as="geometry" />
        </mxCell>
        <mxCell id="iiWaj7jSBL8KXbxFWDxD-66" value="" style="group;opacity=0;strokeWidth=5;perimeterSpacing=5;" parent="1" vertex="1" connectable="0">
          <mxGeometry x="24" y="9" width="769" height="1213" as="geometry" />
        </mxCell>
        <mxCell id="iiWaj7jSBL8KXbxFWDxD-93" value="" style="rounded=0;whiteSpace=wrap;html=1;dashed=1;" parent="iiWaj7jSBL8KXbxFWDxD-66" vertex="1">
          <mxGeometry x="16" y="781" width="729" height="432" as="geometry" />
        </mxCell>
        <UserObject label="&lt;div style=&quot;font-size: 1px&quot;&gt;&lt;p style=&quot;text-align:center;margin-left:0;margin-right:0;margin-top:0px;margin-bottom:0px;text-indent:0;vertical-align:middle;direction:ltr;&quot;&gt;&lt;font style=&quot;font-size:12px;font-family:0;color:#000000;direction:ltr;letter-spacing:0px;line-height:120%;opacity:1&quot;&gt;移动端&lt;/font&gt;&lt;/p&gt;&lt;/div&gt;" tags="Background" id="iiWaj7jSBL8KXbxFWDxD-6">
          <mxCell style="verticalAlign=middle;align=center;overflow=width;vsdxID=4;fillColor=none;gradientColor=none;image;aspect=fixed;image=data:image/png,iVBORw0KGgoAAAANSUhEUgAAACgAAABMCAYAAAAfm/UhAAAAAXNSR0IArs4c6QAAApNJREFUaEPtmk1rE2EUhc8NUrBGLCiICrbxD7STVIXaBIqoXZj6gcmiRZsa60ZXCroUl6K4URFaTBMoURSVfoBFhYopBbXJ6LaI4lJBbGmyauHKpLQksZFk7iSr++6Gec+5h2cOzOYSSk6r91DYBdcpEHUBvLP0fW2e6SeYp5n4xef0zLPCGbT24PV2BploBMD22oSo2PU3MQ9kMjMTliIf0GgP9IB5rGKLelwkOmHOvR9fDejzZwFsqcfcKmbkzHTKTUZ74ByYE1UI63aVQREyvP4xEHqqnRoOnURj42bEE4+xZ/cuNDVtK2uxvLKC+fmv1Y4AiCfI8Pn/AGiqVh0djMC1qQHDD4dwYL8XLS17y1osLWXxaupttSOs+wtWQLajrJdGA0pJrxPs6Dgo9XJUPzv7Ie+3HrCvN4yrVy47OsSu2Z2795BMrv7xNKAdikrQDrVCjRJUglICUr12UAlKCUj12kElKCUg1WsHlaCUgFSvHVSCUgJSvXZQCUoJSPXaQSUoJSDVaweVoJSAVK8dVIJSAlK9dlAJSglI9dpBJSglINVrB5WglIBUrx2sGcG+3pDU2xH9aPLpv2spjjjXwMSx3a3g8e78Fpx1Pn7KYGJyypG4VsAFAOWX/yoYcyF6Ft3HDhfdtNbxHsVGK1D/98qitYE5DuagXaetbjdGYvc3lEcGLiGby9m1BgOT1OYL9BM4btfF42nG7Vs3N5Rfu34D377/sGsNYj7vyJJtPPYAbnfxjq5FziIoOMtmOtXgyJry0SNduDjYX5RlaDiB12+m7ecjnDHnUs9LF71jAHbYcd3naYZhtOalpvlF8mkXQYha4Syv9YBrodp8nSFiOl3fVXn8YvA7InppzqWeFAL6C7GlSvM7Zce6AAAAAElFTkSuQmCC;strokeColor=none;strokeWidth=0;points=[];labelBackgroundColor=none;rounded=0;html=1;whiteSpace=wrap;" parent="iiWaj7jSBL8KXbxFWDxD-66" vertex="1">
            <mxGeometry x="249" width="43" height="76" as="geometry" />
          </mxCell>
        </UserObject>
        <UserObject label="&lt;div style=&quot;font-size: 1px&quot;&gt;&lt;p style=&quot;text-align:center;margin-left:0;margin-right:0;margin-top:0px;margin-bottom:0px;text-indent:0;vertical-align:middle;direction:ltr;&quot;&gt;&lt;font style=&quot;font-size:12px;font-family:0;color:#000000;direction:ltr;letter-spacing:0px;line-height:120%;opacity:1&quot;&gt;防火墙&lt;/font&gt;&lt;/p&gt;&lt;/div&gt;" tags="Background" id="iiWaj7jSBL8KXbxFWDxD-7">
          <mxCell style="verticalAlign=middle;align=center;overflow=width;vsdxID=5;fillColor=none;gradientColor=none;image;aspect=fixed;image=data:image/png,iVBORw0KGgoAAAANSUhEUgAAAEsAAAA1CAYAAAAJZhZbAAAAAXNSR0IArs4c6QAADAJJREFUaEPlW3l8VNUV/u7Mm30mkQQNYRMQUASsgkpVoIitBcSlaCKhERCUyCJYCbhWQEQxwRAiKAhRBMEAgqDgFhBFRVSwFJUqSBFEjCwhyezzZt5rzx1nfplklvfSCcRy/oK5525fzrv3nO+cy2oKsqsApCL54tbKmo6WB8qOVhTeYTHL3p8B2OJNwyypkJ3ValdidzFDZospy52uZ4a28fulfWAwqh1EgX41qynIlhUoNkgloPG3a5a/7lDl7KxUQcPojxJXzNmPwrXmSUCWEqlGtPsl+Zy0B9dUn3xmaBtdQDqsqrMK5SYEFoNt8gp4PyqD7/M3VGwBOOvAYkYrrPeWAn4RzqX5kE5VKAbs7APLnALr+MUcoEDFAbhXzYTscysC7KwGixCSKn+Ce10hpFN0L8SXsw4sgsN63zIwnYEDpGmWCdlZBVfZ4xy4eHJWgmW+/TFo23aFe+1s6HoOgtDuEsjOU3C+NAWy2x4Tr9MJlheAPpGpq23X9xgAsbKiqy374b1KXQfTjZMgXHQ13K8Xwv/9Tpiz/w7t+d3g/3Y73G/OO6NgMcDHHAVZLZgYYGrBSKRvHv/8TUg97yEAQxljO5xzczPhcsX3s+5fVgCjJdezaT7EvR+BWZvBMnoumN6EQMXBEd4X88vrDiDp5YBtyuvHQr//MisnwwqvJtH61LbTypMOUu1FyLJMp3MLAHmMsRcSLVCW5TkAJnveWwzxn5u5Olmo4bo76Z+vMcayEo3RmO3klH6QcAKG4y4YRlJIQbrVBdnlDLAm6mcaNL6d0LUvgQXfp2sPeT9eHfdqM+fO6qTN7JjuWjUTgcNf8+HJuqxjF0IWvZKjePjnieZU0s4Au23q6utJ116QXS4r2Atfi9JwR0agc+rUtfvlkoEGu8fmUbIo4YIeMA15IKxKnrn3w5UA6kdYmnMyYLm7BLKrGo4FeRE6lhFPQ3NeO7jXzIL/hz1Kpk6oYzPajai0ynYzozNbkTQqWOQGkDtQWzzvLoK45/16izP0zYG+1y3w7dwI79blEe2Ga7Kgv/o2+L58G94tSxVtLJFSkwOLFkzWQlbj/WQNaNOyxwnnkkkRroC2VWeYh83k+3Mungip6peIveq6XwvjgHvg3/c53BueSYSDovamCdaoImjSW8G5dAqM190JbZuLIe5+D57y0uCZZDDDPHx2END3X4Zv11v1NqvvOQiG/iMg7i6Hp3wJb9e27AyhyzXQpJ4HaLSQPQ7uk/k+e4N/yomkaYL163njfHkqX79lRAHg98GxYAyP/Uy3TIbQ6UoEDn8D16rHo+6RPkGySt/218IWSr/VFv/+L+D9YHk9q4wFWtMEK28+NCnnhj8vc84MaFtfBM/mUkgnjsA8dBrddHAuuQ+yozLq3gz9cqG/4kZ4t7zErchw7fAIPfeGIvj3fZbImCLamxxYzGSDdcISyF4XHCXcV4Kua18YB42HdPwwB0nbshN8n62Hd9urMTdrHDgWum79uGWFLEo6eQSa9NZRLwQlqDUqWIyJGeQpq3Id2l8K020PIfDjXrjKZgT3oNXBOv4FflaRcKt6/h4OaCwJhT2hdvGrrZCO/cCdVd+X7wQtTqU0CCx74dB+CedhgWO2/DV7Q3pVc7J6avyyIVE/893FE7VprW6nm5CsIiShc4r+T24EuRPxxHJXMWchOLj2k3CW/g2alp147Ci77TsdJaMmJVpL7XZZ0Iqp+au+oN+U7oV02f6SgYaOlb1ENZMp0p02jTxP8tgz6HCXjh0Kd9NfdSsMvbP5/8kVIJcgLlh3zoGmeRuu4t26DL6dm8AszWAdt5B+8lFIxRg7FRpDnj496bEhB6umMLsaMlIUAaBCSXtuW695ZKFBqj4O5wsTInoKHS6D6dYH+W+OeSMTMqLGwROh63IN1ycXhM47EnPOdGhbdwF8nieYwfT3ytlZbQUN2wcgodWr2ErQooFTij14tYMb/zQaukuvh/iPd+HZ/GJEd01Kc1jyFnD62LX84YRD63//Fxj6DOWOrGP+XWF9basLYR5G7oZcCbC2lUU5ab+97I6gh3XcIn6Iu5Y/hEDFv+sBYpuyCuI32+B5a0FCsEIxJnFcxHXVFrJQstT/Xh0zK4tyFv/mwNJ1+wOMA8fxz4U+m2hiGTMf4tcfRBz8MVETdLDd+xLEb7fD8/ZzkVbavA0sIwsBxryuT9b2DmxfzQ/uxpBG+QxDjicFvRT8RhNyRn27yzkLqkSMN0zgcWU0N8E4IA+67v0Bn3udfd7IIUrGa4hO0sGiK56uekgBfr7E8p/I0RS/fAeBXw4qWrfQ/lLu+VMStq4wcyosY57lyQ7nyw9wH6wxJOlg6S8fDMO1dyBw6Cu4Vj8Rc80U63l3rAcCCr0WpoHukv5hBrXuwPqrhsDQ+3YEju6Ha8WjjYGVcvJP6ezGwfdC16V3OOiN1U97fncOqBpheiNkX3TekazKMnZh8FIpm8GjhmQLsxdkO2UgGHskQULedkJWU9DxVH0yhSyaLFv81yfwbCxJ5tA0lo/VzB+erqkWhWSMLHS7zma4afR+Gssxb0RMK0jGXNHGIG6Lzi6+s22rLhY/3hCdxmjIAiwNzO7ITw1rVmlhgbpzpo0o7oOU5hvjuQwxP8sWF0DTvDXErz9syFbCfUy35EPodAUkj2ta1eIxxbEGS5+4oobaqouy0vyC3q9kUqUH/AlotF1S8l89IU/P0tvNjCo26sVfobQVpbEonaVWqDDEt+tt+HasU9s1rE/hD4VBRE0TRR1DvDaXnLIrs5ncubqK9qJVMqFSsKAku6O//AZOzAWzOCuUzB+hQ44sObTUV22NVu2BrPc8B2ZLh3PRBEg1x6Ouo0EUTTJTYSHL8n2xkVO8aoVuUbpNSVzLHlTsg9WdJ0QBhcoAoq3jjIOlu+zPMP5xFE+9UwperQgdesB0azDPKO7ZAs+7CZPYUacg+odooLo8Wm3lMw6WcEFPmIZMBVG+zhcnq8UKIfqYOgZ++g6ulY+pHoM66HvdDEPfYXGPgzMOVohzpwXb597BszhKJRwm/dohGg+mdCyim+lIiJVao3HOOFi0iLBT+uY8xUEy9aM0P1ExAIj8GvW/gEV5SG1Ge16mFCtQbxJghXJ8FMxSUKtEtJkdYcp+FAj4wUy27gC+ogJcylyrFU1aS16mROJ4Lo9XD572A15pdocZLbzqBYKeE3tE8CUSU9YjvMrPu22l39B32EUAvpcqj/LEhFohKkd3cZ9EqX7ZZrSbeGGIhXkgKyu9Yg3J7rjnDDnfK+lihki20UXDNWktHyN6xll6X9xXE2RV5txZkCWpyr5y5hUpudOO0JEni16B5xqleoFCTPzCNROyLPr3bB7sfK/0QDRlWSP66TEDtSXaS+3+7PisIZlJi6JrjWyeWvYKBF1//8HdcL/2VMwNhnKCUs2JGZ75eTwnZp5ath6C7ko17AFdLkQ6Ul0FHKeedJXcpd53iWPGkk3rJ9bBKzdCTSkzpxBlcpJptOlEl7jXFdTL4pCXTd627KqBY9G4MAsRLjHasR7ej2JnqkN7o5iSuHgqEwj8/D1crzyi9utVou9WHO4oGa2ujq5/bh9jj8HLwFh76cSPnAysfeCGSonq1l1RSt/81yc4kede93TcSmXy7Yw3TuIsqewXv3E+n9eV6OfGkEYFix46nTN5rR1+cSsE3SW0CSpWE3e9xembcHXyG3Ph/25HxP6MA8ZC170f/Ad2cauMJsGbl6ppeGnsDt+m4lHevZ8mn/X7dfJGB4sOUseG4gzj7/pXEDtKQrVUFD9SLpBf8c+O5r9FHKY6A8xU25XSHOLej4NZHSkAbYsOEC68CkLnXrymi6c/Rd9C6AyTKotyMn5zqbDQpus+oRM6Xg4qTKOHASGh1xPO0vujWo4m9VxeWKJJaxXMQutNoN/CfU8egWfLUngP7vn/fUJHB7K+5w3BBARZzaYguxlNiFM33TyZPx4I/xGOfMvrHfz7gzUSp/OFxRl7nEnXPcWEgaNUnhBfyCKlmhM8yVH3tdhZAVYigJS2nzawqguyq1jjvJGu0sqarmreSCsFp47eMRczdKAHDfS0RgY7kMxsVXguGcf/A1ol2G3BOsIAAAAAAElFTkSuQmCC;strokeColor=none;strokeWidth=0;points=[];labelBackgroundColor=none;rounded=0;html=1;whiteSpace=wrap;" parent="iiWaj7jSBL8KXbxFWDxD-66" vertex="1">
            <mxGeometry x="343" y="179" width="82" height="53" as="geometry" />
          </mxCell>
        </UserObject>
        <UserObject label="&lt;div style=&quot;font-size: 1px&quot;&gt;&lt;p style=&quot;text-align:center;margin-left:0;margin-right:0;margin-top:0px;margin-bottom:0px;text-indent:0;vertical-align:middle;direction:ltr;&quot;&gt;&lt;font style=&quot;font-size:12px;font-family:0;color:#000000;direction:ltr;letter-spacing:0px;line-height:120%;opacity:1&quot;&gt;PC&lt;/font&gt;&lt;/p&gt;&lt;/div&gt;" tags="Background" id="iiWaj7jSBL8KXbxFWDxD-8">
          <mxCell style="verticalAlign=middle;align=center;overflow=width;vsdxID=6;fillColor=none;gradientColor=none;image;aspect=fixed;image=data:image/png,iVBORw0KGgoAAAANSUhEUgAAAE0AAABBCAYAAACUyynLAAAAAXNSR0IArs4c6QAABBxJREFUeF7tnFtsDFEcxr+ZrW3XotVqsOJWJXWpsOKSUJfqtiRVgqxLIm6JEPHAo0sivJBoIkERiaLVxRattpGsCokiqhoUpTwQSRNBSN12u7pHpq1iddg5M1N2+p+nTeb/fefMb78zc2ZyZgSE+WYbN72X4G+qBdCrgw4lT+ighnRrpt/olJkAytevXobEQQN0a8fnb8SuvYfxvqEBYQ/NNmqao3sPi6c477BuwL4b5xa4ke8uNga02NhunsLcHN2hnXQX4WhBofGgnSwsw9UbVfD5GpshDuxv44L54mV9sy6uZzSWL8rCmOQkGBZa9oHjuPeojguUnGjlknmYMWW8caEFAk34+MmrKbQe3a3NfoZNmqa0gswMA21satY6qzUqZ06GNPPQd6ute4YHj+vC/0KQMGFmprWrpaTg0F59iQE4db4EJ04XhT80aZ5GUw6FeQmG5jp/ERfLK9pcoiLNCh1byr2tUxbpt3NuBjLTpxr3QpDrKsKVittcoORE82bPwPzMNIKmhKrhod26U4MrFZXo0zteCRfZ2rdv32FW6mSMHJ5o3KRpQkrGxDDztH9y9bQ7nDUQYNHzH9LTmzFmAZitT7z8cDSbzdi9bZPqbrQlze5wsg2rliC2Z4xq0//R4OOnz8g+dBz5ObsgiiZVXfwFWmnefvTV6MSpqlc6iD9/+YKUuSsImhK2BE0JrdZagkbQOAhwSChpBI2DAIeEkkbQOAhwSChpBI2DAIeEkkbQOAhwSChpGkF73RDAs1dNiDABCb1NiLOKITl36qcc56q8yL/esnRhRYoFWfZIgvYzgfaGp+umF+7KFmiLJ0XBOTGKoP0NWm39Vxy75oUgMKxK6YphfUN7ONmph2dIsWqniKBxkCNoBE2eAM3TONJB0AgaBwEOCSWNoHEQ4JBQ0lRAO5K9HaIY2o25XDPu4jLkF16AIK3l6AzLEpYuSIcgqHsV7GHtE9x7+LjzQKMFMAqGKZ3TFMD6XkrQCBoHAQ6Jbklbs2wh4mKiObr0/0uklZD7jro0XtSX5rzE9F5zy5jF/9Vvbw+xKSKiRhTEBl78LBCIAdjIpKFDZC0iTCZs3bSWt4k2XYeu7rYlT08ShOYvGvy2MRFT6u9eu857RP9kdTdvZ5XoCJoSWq21BI2gqXvf0+5wugBIr/TGQ8BZWZ4BFulr9GW2t7+L2ewRRfGDrJZhAYA3YMLl6vLTi4Prwu6cZnc4nwJI/EP4/D/2MeluOfiOmQEC+0nf5Q9ez6svnRkc9tA4RqrmEilpMdFWz7kTBzX3DjbMcxfhmFE+ZiKIAc+eHZsxNnmEruA2btmJ+4+eqDun6drDEM2lpEnQQizXpEzdUzlNuqDOpN/oqakAu6zORZk67KEljEuL9vl91QASlB06d3XpN6KtRBx6qcOBAAAAAElFTkSuQmCC;strokeColor=none;strokeWidth=0;points=[];labelBackgroundColor=none;rounded=0;html=1;whiteSpace=wrap;" parent="iiWaj7jSBL8KXbxFWDxD-66" vertex="1">
            <mxGeometry x="455" y="11" width="82" height="65" as="geometry" />
          </mxCell>
        </UserObject>
        <UserObject label="" tags="Background" id="iiWaj7jSBL8KXbxFWDxD-12">
          <mxCell style="vsdxID=10;fillColor=none;gradientColor=none;image;aspect=fixed;image=data:image/png,iVBORw0KGgoAAAANSUhEUgAAACQAAABQCAYAAABxs9dPAAAAAXNSR0IArs4c6QAAA9FJREFUaEPtmktME1EUhv87nbbTlr6gQAFbHhqNxkQTRYNRjNH4AkmMC10Yda2JKzcmunCvLt24cSsmGOOWpa8Yja9E4hsliLSlLfQ5nZeZQQplkLY46Yw6s53bc77573/PnDu9pKP7cFCg+RsEpB+AFbpcEieB3KdF/iwJ9ewfIiBHdeFYlFQChki450BBP2VUMhRkIMkI6swxmEDlZoNcvTVkrCk7fv6SsYBMU5cx0d+xyoivqdxi0OS+lIyo4iypUGjHIRDGrRo8kZjWBEQJIgrgXg1XBrS6tx+XTh4rGTz8+h0GH77QB4he16Nd4mUi8e8eV6YQ1dBWEyBxarwyoK5dfWhpUUM9/fBVO9BqPCQDnTq4pyT5++9R3Hn0Uh8gy5qt2iVeJpLw8VllU1YTmt8kWbIOUf6WmjCJiYnKFOra1Q+Ls041eDSS0A60OlP348KJgZLkD95+0s/U9Npt2imxXGF8/7SyKaOaOmoCJEZGKwOS61B7KKQa/GDki3ag1XmoDyf29ZYkH43EdfRQ5ybtlFjOQ19eVTZlNaGppjCaQAsUWPLVYbiXq/zq2Nu9uWTmMiyn3yqTgbo3blBZaeiJelWs2G/V1CHDtbCGa/LlbdCpQ4ta2PEIBh/q1MLKQMFgq8oeujX5httKr3jlaPDDv+PrhwYPuuIQpkLlpDMVMhUqp0C5+6aHyiu0s89Yfy2s6jtjLKC5/zrymSzS8QT8Lc1ITEzC5fcik5gG43KCZwsQRQFWhgGbzcETqMdMLA5PYwAz0Rjc9X6k4gnYHAwEQYBQ4OCocyGXzsDbGMB0NFYcOxfXxtghK8HlWQRC898zi6aWgeLj39Hc1YHJz6PwtwaRik7B6fWUAGVnUvAHmxAbG0cgHELs2xga2lqVpEydqwRIfsD6tlZEv40Vx8px01MJ2J0OBaiQzaKxPVy0lglkKrTQ1KaHzFVm1iEAZmE0C+O/XRjzqRTcgQakYlOw17nApjOgbTbwBfkQFmCxWiFwnNKSZKdn4PT5kE0m4XC7kUulQNG00n4QSYLVbgfHsnD5fMgkk8Wxc3Epi0VpPyRBgC/YPN9+XLx201gd47kr140F9P8e17FQgCCW7IJoEPCKk+avmmwUmXYvvL1hZN5GkX7+Q8m+nrLjtM2Dx3wO9/i0uqcut4H7k/u+3WHYO7yQ8jwit0eUUMetHmy1MOAkCZfZKIRfCWqiEOWg4d4SRO5TEoWJWTUYQjBAu/FGyGNEnC0r8lUToGrUNd7RUyMdzgUwSDq3723mKfoGgXQEIDodX0aeAHeJnT37E2WXxf6oy9/MAAAAAElFTkSuQmCC;strokeColor=none;strokeWidth=0;points=[];labelBackgroundColor=none;rounded=0;html=1;whiteSpace=wrap;" parent="iiWaj7jSBL8KXbxFWDxD-66" vertex="1">
            <mxGeometry x="590" y="609" width="36" height="80" as="geometry" />
          </mxCell>
        </UserObject>
        <UserObject label="&lt;div style=&quot;font-size: 1px&quot;&gt;&lt;p style=&quot;text-align:center;margin-left:0;margin-right:0;margin-top:0px;margin-bottom:0px;text-indent:0;vertical-align:middle;direction:ltr;&quot;&gt;&lt;font style=&quot;font-size:12px;font-family:0;color:#000000;direction:ltr;letter-spacing:0px;line-height:120%;opacity:1&quot;&gt;172.23.10.83&lt;br&gt;明道云微服务2&lt;/font&gt;&lt;/p&gt;&lt;/div&gt;" tags="Background" id="iiWaj7jSBL8KXbxFWDxD-13">
          <mxCell style="verticalAlign=middle;align=center;overflow=width;vsdxID=11;fillColor=none;gradientColor=none;shape=stencil(nZBLDoAgDERP0z3SI/i5B4koRAWC+Lu9kMaIxpW7mfZNkw5gOSvhJHA2B28Huek2KMAKONdGSa9DVIA1YNlZL3tvF9OSdyKRSU12TRd2yrGU4OzIXUPgqE0GFuw3evlP+Df6AKO4P6Ry8t27jTiiJrE+AQ==);strokeColor=#000000;strokeWidth=2;spacingTop=-3;spacingBottom=-3;spacingLeft=-3;spacingRight=-3;points=[];labelBackgroundColor=none;rounded=0;html=1;whiteSpace=wrap;opacity=0;" parent="iiWaj7jSBL8KXbxFWDxD-66" vertex="1">
            <mxGeometry x="322" y="694" width="125" height="40" as="geometry" />
          </mxCell>
        </UserObject>
        <mxCell id="iiWaj7jSBL8KXbxFWDxD-102" value="" style="edgeStyle=orthogonalEdgeStyle;rounded=0;orthogonalLoop=1;jettySize=auto;html=1;strokeWidth=2;endSize=5;startSize=5;" parent="iiWaj7jSBL8KXbxFWDxD-66" source="iiWaj7jSBL8KXbxFWDxD-14" edge="1">
          <mxGeometry relative="1" as="geometry">
            <mxPoint x="387" y="349" as="targetPoint" />
          </mxGeometry>
        </mxCell>
        <UserObject label="&lt;div style=&quot;font-size: 1px&quot;&gt;&lt;p style=&quot;text-align:center;margin-left:0;margin-right:0;margin-top:0px;margin-bottom:0px;text-indent:0;vertical-align:middle;direction:ltr;&quot;&gt;&lt;font style=&quot;font-size:12px;font-family:0;color:#000000;direction:ltr;letter-spacing:0px;line-height:120%;opacity:1&quot;&gt;内网访问地址&lt;br/&gt;&lt;/font&gt;&lt;font style=&quot;font-size:12px;font-family:0;color:#000000;direction:ltr;letter-spacing:0px;line-height:120%;opacity:1&quot;&gt;http://172.23.10.86:8880&lt;br/&gt;&lt;/font&gt;&lt;/p&gt;&lt;/div&gt;" tags="Background" id="iiWaj7jSBL8KXbxFWDxD-14">
          <mxCell style="verticalAlign=middle;align=center;overflow=width;vsdxID=12;fillColor=none;gradientColor=none;shape=stencil(nZBLDoAgDERP0z3SI/i5B4koRAWC+Lu9kMaIxpW7mfZNkw5gOSvhJHA2B28Huek2KMAKONdGSa9DVIA1YNlZL3tvF9OSdyKRSU12TRd2yrGU4OzIXUPgqE0GFuw3evlP+Df6AKO4P6Ry8t27jTiiJrE+AQ==);strokeColor=#000000;strokeWidth=2;spacingTop=-3;spacingBottom=-3;spacingLeft=-3;spacingRight=-3;points=[];labelBackgroundColor=none;rounded=0;html=1;whiteSpace=wrap;dashed=1;" parent="iiWaj7jSBL8KXbxFWDxD-66" vertex="1">
            <mxGeometry x="303" y="278" width="167" height="44" as="geometry" />
          </mxCell>
        </UserObject>
        <UserObject label="" tags="Background" id="iiWaj7jSBL8KXbxFWDxD-15">
          <mxCell style="vsdxID=13;fillColor=none;gradientColor=none;image;aspect=fixed;image=data:image/png,iVBORw0KGgoAAAANSUhEUgAAACQAAABQCAYAAABxs9dPAAAAAXNSR0IArs4c6QAAA9FJREFUaEPtmktME1EUhv87nbbTlr6gQAFbHhqNxkQTRYNRjNH4AkmMC10Yda2JKzcmunCvLt24cSsmGOOWpa8Yja9E4hsliLSlLfQ5nZeZQQplkLY46Yw6s53bc77573/PnDu9pKP7cFCg+RsEpB+AFbpcEieB3KdF/iwJ9ewfIiBHdeFYlFQChki450BBP2VUMhRkIMkI6swxmEDlZoNcvTVkrCk7fv6SsYBMU5cx0d+xyoivqdxi0OS+lIyo4iypUGjHIRDGrRo8kZjWBEQJIgrgXg1XBrS6tx+XTh4rGTz8+h0GH77QB4he16Nd4mUi8e8eV6YQ1dBWEyBxarwyoK5dfWhpUUM9/fBVO9BqPCQDnTq4pyT5++9R3Hn0Uh8gy5qt2iVeJpLw8VllU1YTmt8kWbIOUf6WmjCJiYnKFOra1Q+Ls041eDSS0A60OlP348KJgZLkD95+0s/U9Npt2imxXGF8/7SyKaOaOmoCJEZGKwOS61B7KKQa/GDki3ag1XmoDyf29ZYkH43EdfRQ5ybtlFjOQ19eVTZlNaGppjCaQAsUWPLVYbiXq/zq2Nu9uWTmMiyn3yqTgbo3blBZaeiJelWs2G/V1CHDtbCGa/LlbdCpQ4ta2PEIBh/q1MLKQMFgq8oeujX5httKr3jlaPDDv+PrhwYPuuIQpkLlpDMVMhUqp0C5+6aHyiu0s89Yfy2s6jtjLKC5/zrymSzS8QT8Lc1ITEzC5fcik5gG43KCZwsQRQFWhgGbzcETqMdMLA5PYwAz0Rjc9X6k4gnYHAwEQYBQ4OCocyGXzsDbGMB0NFYcOxfXxtghK8HlWQRC898zi6aWgeLj39Hc1YHJz6PwtwaRik7B6fWUAGVnUvAHmxAbG0cgHELs2xga2lqVpEydqwRIfsD6tlZEv40Vx8px01MJ2J0OBaiQzaKxPVy0lglkKrTQ1KaHzFVm1iEAZmE0C+O/XRjzqRTcgQakYlOw17nApjOgbTbwBfkQFmCxWiFwnNKSZKdn4PT5kE0m4XC7kUulQNG00n4QSYLVbgfHsnD5fMgkk8Wxc3Epi0VpPyRBgC/YPN9+XLx201gd47kr140F9P8e17FQgCCW7IJoEPCKk+avmmwUmXYvvL1hZN5GkX7+Q8m+nrLjtM2Dx3wO9/i0uqcut4H7k/u+3WHYO7yQ8jwit0eUUMetHmy1MOAkCZfZKIRfCWqiEOWg4d4SRO5TEoWJWTUYQjBAu/FGyGNEnC0r8lUToGrUNd7RUyMdzgUwSDq3723mKfoGgXQEIDodX0aeAHeJnT37E2WXxf6oy9/MAAAAAElFTkSuQmCC;strokeColor=none;strokeWidth=0;points=[];labelBackgroundColor=none;rounded=0;html=1;whiteSpace=wrap;" parent="iiWaj7jSBL8KXbxFWDxD-66" vertex="1">
            <mxGeometry x="368" y="609" width="36" height="80" as="geometry" />
          </mxCell>
        </UserObject>
        <UserObject label="&lt;div style=&quot;font-size: 1px&quot;&gt;&lt;p style=&quot;text-align:center;margin-left:0;margin-right:0;margin-top:0px;margin-bottom:0px;text-indent:0;vertical-align:middle;direction:ltr;&quot;&gt;&lt;font style=&quot;font-size:12px;font-family:0;color:#000000;direction:ltr;letter-spacing:0px;line-height:120%;opacity:1&quot;&gt;172.23.10.84&lt;/font&gt;&lt;/p&gt;&lt;p style=&quot;text-align:center;margin-left:0;margin-right:0;margin-top:0px;margin-bottom:0px;text-indent:0;vertical-align:middle;direction:ltr;&quot;&gt;&lt;font style=&quot;font-size:12px;font-family:0;color:#000000;direction:ltr;letter-spacing:0px;line-height:120%;opacity:1&quot;&gt;数据集成&lt;/font&gt;&lt;/p&gt;&lt;/div&gt;" tags="Background" id="iiWaj7jSBL8KXbxFWDxD-16">
          <mxCell style="verticalAlign=middle;align=center;overflow=width;vsdxID=14;fillColor=none;gradientColor=none;shape=stencil(nZBLDoAgDERP0z3SI/i5B4koRAWC+Lu9kMaIxpW7mfZNkw5gOSvhJHA2B28Huek2KMAKONdGSa9DVIA1YNlZL3tvF9OSdyKRSU12TRd2yrGU4OzIXUPgqE0GFuw3evlP+Df6AKO4P6Ry8t27jTiiJrE+AQ==);strokeColor=#000000;strokeWidth=2;spacingTop=-3;spacingBottom=-3;spacingLeft=-3;spacingRight=-3;points=[];labelBackgroundColor=none;rounded=0;html=1;whiteSpace=wrap;opacity=0;" parent="iiWaj7jSBL8KXbxFWDxD-66" vertex="1">
            <mxGeometry x="547.5" y="694" width="121" height="40" as="geometry" />
          </mxCell>
        </UserObject>
        <UserObject label="&lt;div style=&quot;font-size: 1px&quot;&gt;&lt;p style=&quot;text-align:center;margin-left:0;margin-right:0;margin-top:0px;margin-bottom:0px;text-indent:0;vertical-align:middle;direction:ltr;&quot;&gt;&lt;font style=&quot;font-size:12px;font-family:0;color:#000000;direction:ltr;letter-spacing:0px;line-height:120%;opacity:1&quot;&gt;172.23.10.97&lt;br/&gt;172.23.10.98&lt;br/&gt;172.23.10.99&lt;br/&gt;mongodb&lt;/font&gt;&lt;/p&gt;&lt;/div&gt;" tags="Background" id="iiWaj7jSBL8KXbxFWDxD-32">
          <mxCell style="verticalAlign=middle;align=center;overflow=width;vsdxID=30;fillColor=none;gradientColor=none;shape=stencil(nZBLDoAgDERP0z3SI/i5B4koRAWC+Lu9kMaIxpW7mfZNkw5gOSvhJHA2B28Huek2KMAKONdGSa9DVIA1YNlZL3tvF9OSdyKRSU12TRd2yrGU4OzIXUPgqE0GFuw3evlP+Df6AKO4P6Ry8t27jTiiJrE+AQ==);strokeColor=#000000;strokeWidth=2;spacingTop=-3;spacingBottom=-3;spacingLeft=-3;spacingRight=-3;points=[];labelBackgroundColor=none;rounded=0;html=1;whiteSpace=wrap;opacity=0;" parent="iiWaj7jSBL8KXbxFWDxD-66" vertex="1">
            <mxGeometry x="52" y="914" width="117" height="65" as="geometry" />
          </mxCell>
        </UserObject>
        <UserObject label="&lt;div style=&quot;font-size: 1px&quot;&gt;&lt;p style=&quot;text-align:center;margin-left:0;margin-right:0;margin-top:0px;margin-bottom:0px;text-indent:0;vertical-align:middle;direction:ltr;&quot;&gt;&lt;font style=&quot;font-size:12px;font-family:0;color:#000000;direction:ltr;letter-spacing:0px;line-height:120%;opacity:1&quot;&gt;172.23.10.92&lt;br/&gt;172.23.10.93&lt;br/&gt;172.23.10.94&lt;br/&gt;kafka&lt;/font&gt;&lt;/p&gt;&lt;/div&gt;" tags="Background" id="iiWaj7jSBL8KXbxFWDxD-33">
          <mxCell style="verticalAlign=middle;align=center;overflow=width;vsdxID=31;fillColor=none;gradientColor=none;shape=stencil(nZBLDoAgDERP0z3SI/i5B4koRAWC+Lu9kMaIxpW7mfZNkw5gOSvhJHA2B28Huek2KMAKONdGSa9DVIA1YNlZL3tvF9OSdyKRSU12TRd2yrGU4OzIXUPgqE0GFuw3evlP+Df6AKO4P6Ry8t27jTiiJrE+AQ==);strokeColor=#000000;strokeWidth=2;spacingTop=-3;spacingBottom=-3;spacingLeft=-3;spacingRight=-3;points=[];labelBackgroundColor=none;rounded=0;html=1;whiteSpace=wrap;opacity=0;" parent="iiWaj7jSBL8KXbxFWDxD-66" vertex="1">
            <mxGeometry x="419" y="914" width="117" height="65" as="geometry" />
          </mxCell>
        </UserObject>
        <UserObject label="&lt;div style=&quot;font-size: 1px&quot;&gt;&lt;p style=&quot;text-align:center;margin-left:0;margin-right:0;margin-top:0px;margin-bottom:0px;text-indent:0;vertical-align:middle;direction:ltr;&quot;&gt;&lt;font style=&quot;font-size:12px;font-family:0;color:#000000;direction:ltr;letter-spacing:0px;line-height:120%;opacity:1&quot;&gt;172.23.10.92&lt;br/&gt;172.23.10.93&lt;br/&gt;172.23.10.94&lt;br/&gt;elasticsearch&lt;/font&gt;&lt;/p&gt;&lt;/div&gt;" tags="Background" id="iiWaj7jSBL8KXbxFWDxD-34">
          <mxCell style="verticalAlign=middle;align=center;overflow=width;vsdxID=32;fillColor=none;gradientColor=none;shape=stencil(nZBLDoAgDERP0z3SI/i5B4koRAWC+Lu9kMaIxpW7mfZNkw5gOSvhJHA2B28Huek2KMAKONdGSa9DVIA1YNlZL3tvF9OSdyKRSU12TRd2yrGU4OzIXUPgqE0GFuw3evlP+Df6AKO4P6Ry8t27jTiiJrE+AQ==);strokeColor=#000000;strokeWidth=2;spacingTop=-3;spacingBottom=-3;spacingLeft=-3;spacingRight=-3;points=[];labelBackgroundColor=none;rounded=0;html=1;whiteSpace=wrap;opacity=0;" parent="iiWaj7jSBL8KXbxFWDxD-66" vertex="1">
            <mxGeometry x="613" y="914" width="117" height="65" as="geometry" />
          </mxCell>
        </UserObject>
        <UserObject label="&lt;div style=&quot;font-size: 1px&quot;&gt;&lt;p style=&quot;text-align:center;margin-left:0;margin-right:0;margin-top:0px;margin-bottom:0px;text-indent:0;vertical-align:middle;direction:ltr;&quot;&gt;&lt;font style=&quot;font-size:12px;font-family:0;color:#000000;direction:ltr;letter-spacing:0px;line-height:120%;opacity:1&quot;&gt;172.23.10.92&lt;br/&gt;172.23.10.93&lt;br/&gt;172.23.10.94&lt;br/&gt;172.23.10.95&lt;br/&gt;文件存储file&lt;/font&gt;&lt;/p&gt;&lt;/div&gt;" tags="Background" id="iiWaj7jSBL8KXbxFWDxD-35">
          <mxCell style="verticalAlign=middle;align=center;overflow=width;vsdxID=33;fillColor=none;gradientColor=none;shape=stencil(nZBLDoAgDERP0z3SI/i5B4koRAWC+Lu9kMaIxpW7mfZNkw5gOSvhJHA2B28Huek2KMAKONdGSa9DVIA1YNlZL3tvF9OSdyKRSU12TRd2yrGU4OzIXUPgqE0GFuw3evlP+Df6AKO4P6Ry8t27jTiiJrE+AQ==);strokeColor=#000000;strokeWidth=2;spacingTop=-3;spacingBottom=-3;spacingLeft=-3;spacingRight=-3;points=[];labelBackgroundColor=none;rounded=0;html=1;whiteSpace=wrap;opacity=0;" parent="iiWaj7jSBL8KXbxFWDxD-66" vertex="1">
            <mxGeometry x="52" y="1112" width="117" height="81" as="geometry" />
          </mxCell>
        </UserObject>
        <UserObject label="&lt;div style=&quot;font-size: 1px&quot;&gt;&lt;p style=&quot;text-align:center;margin-left:0;margin-right:0;margin-top:0px;margin-bottom:0px;text-indent:0;vertical-align:middle;direction:ltr;&quot;&gt;&lt;font style=&quot;font-size:12px;font-family:0;color:#000000;direction:ltr;letter-spacing:0px;line-height:120%;opacity:1&quot;&gt;172.23.10.98&lt;br/&gt;172.23.10.99&lt;br/&gt;&lt;/font&gt;&lt;font style=&quot;font-size:12px;font-family:0;color:#000000;direction:ltr;letter-spacing:0px;line-height:120%;opacity:1&quot;&gt;vip：172.23.10.96&lt;br/&gt;mysql&lt;/font&gt;&lt;/p&gt;&lt;/div&gt;" tags="Background" id="iiWaj7jSBL8KXbxFWDxD-36">
          <mxCell style="verticalAlign=middle;align=center;overflow=width;vsdxID=34;fillColor=none;gradientColor=none;shape=stencil(nZBLDoAgDERP0z3SI/i5B4koRAWC+Lu9kMaIxpW7mfZNkw5gOSvhJHA2B28Huek2KMAKONdGSa9DVIA1YNlZL3tvF9OSdyKRSU12TRd2yrGU4OzIXUPgqE0GFuw3evlP+Df6AKO4P6Ry8t27jTiiJrE+AQ==);strokeColor=#000000;strokeWidth=2;spacingTop=-3;spacingBottom=-3;spacingLeft=-3;spacingRight=-3;points=[];labelBackgroundColor=none;rounded=0;html=1;whiteSpace=wrap;opacity=0;" parent="iiWaj7jSBL8KXbxFWDxD-66" vertex="1">
            <mxGeometry x="212" y="914" width="117" height="65" as="geometry" />
          </mxCell>
        </UserObject>
        <UserObject label="&lt;div style=&quot;font-size: 1px&quot;&gt;&lt;p style=&quot;text-align:center;margin-left:0;margin-right:0;margin-top:0px;margin-bottom:0px;text-indent:0;vertical-align:middle;direction:ltr;&quot;&gt;&lt;font style=&quot;font-size:12px;font-family:0;color:#000000;direction:ltr;letter-spacing:0px;line-height:120%;opacity:1&quot;&gt;端口：27017&lt;/font&gt;&lt;/p&gt;&lt;/div&gt;" tags="Background" id="iiWaj7jSBL8KXbxFWDxD-37">
          <mxCell style="verticalAlign=middle;align=center;overflow=width;vsdxID=35;fillColor=none;gradientColor=none;shape=stencil(nZBLDoAgDERP0z3SI/i5B4koRAWC+Lu9kMaIxpW7mfZNkw5gOSvhJHA2B28Huek2KMAKONdGSa9DVIA1YNlZL3tvF9OSdyKRSU12TRd2yrGU4OzIXUPgqE0GFuw3evlP+Df6AKO4P6Ry8t27jTiiJrE+AQ==);strokeColor=#000000;strokeWidth=2;spacingTop=-3;spacingBottom=-3;spacingLeft=-3;spacingRight=-3;points=[];labelBackgroundColor=none;rounded=0;html=1;whiteSpace=wrap;opacity=0;" parent="iiWaj7jSBL8KXbxFWDxD-66" vertex="1">
            <mxGeometry x="52" y="791" width="102" height="40" as="geometry" />
          </mxCell>
        </UserObject>
        <UserObject label="&lt;div style=&quot;font-size: 1px&quot;&gt;&lt;p style=&quot;text-align:center;margin-left:0;margin-right:0;margin-top:0px;margin-bottom:0px;text-indent:0;vertical-align:middle;direction:ltr;&quot;&gt;&lt;font style=&quot;font-size:12px;font-family:0;color:#000000;direction:ltr;letter-spacing:0px;line-height:120%;opacity:1&quot;&gt;端口：3306&lt;/font&gt;&lt;/p&gt;&lt;/div&gt;" tags="Background" id="iiWaj7jSBL8KXbxFWDxD-38">
          <mxCell style="verticalAlign=middle;align=center;overflow=width;vsdxID=36;fillColor=none;gradientColor=none;shape=stencil(nZBLDoAgDERP0z3SI/i5B4koRAWC+Lu9kMaIxpW7mfZNkw5gOSvhJHA2B28Huek2KMAKONdGSa9DVIA1YNlZL3tvF9OSdyKRSU12TRd2yrGU4OzIXUPgqE0GFuw3evlP+Df6AKO4P6Ry8t27jTiiJrE+AQ==);strokeColor=#000000;strokeWidth=2;spacingTop=-3;spacingBottom=-3;spacingLeft=-3;spacingRight=-3;points=[];labelBackgroundColor=none;rounded=0;html=1;whiteSpace=wrap;opacity=0;" parent="iiWaj7jSBL8KXbxFWDxD-66" vertex="1">
            <mxGeometry x="220" y="791" width="102" height="40" as="geometry" />
          </mxCell>
        </UserObject>
        <UserObject label="&lt;div style=&quot;font-size: 1px&quot;&gt;&lt;p style=&quot;text-align:center;margin-left:0;margin-right:0;margin-top:0px;margin-bottom:0px;text-indent:0;vertical-align:middle;direction:ltr;&quot;&gt;&lt;font style=&quot;font-size:12px;font-family:0;color:#000000;direction:ltr;letter-spacing:0px;line-height:120%;opacity:1&quot;&gt;端口：9092&lt;/font&gt;&lt;/p&gt;&lt;/div&gt;" tags="Background" id="iiWaj7jSBL8KXbxFWDxD-39">
          <mxCell style="verticalAlign=middle;align=center;overflow=width;vsdxID=37;fillColor=none;gradientColor=none;shape=stencil(nZBLDoAgDERP0z3SI/i5B4koRAWC+Lu9kMaIxpW7mfZNkw5gOSvhJHA2B28Huek2KMAKONdGSa9DVIA1YNlZL3tvF9OSdyKRSU12TRd2yrGU4OzIXUPgqE0GFuw3evlP+Df6AKO4P6Ry8t27jTiiJrE+AQ==);strokeColor=#000000;strokeWidth=2;spacingTop=-3;spacingBottom=-3;spacingLeft=-3;spacingRight=-3;points=[];labelBackgroundColor=none;rounded=0;html=1;whiteSpace=wrap;opacity=0;" parent="iiWaj7jSBL8KXbxFWDxD-66" vertex="1">
            <mxGeometry x="419" y="789" width="102" height="40" as="geometry" />
          </mxCell>
        </UserObject>
        <UserObject label="&lt;div style=&quot;font-size: 1px&quot;&gt;&lt;p style=&quot;text-align:center;margin-left:0;margin-right:0;margin-top:0px;margin-bottom:0px;text-indent:0;vertical-align:middle;direction:ltr;&quot;&gt;&lt;font style=&quot;font-size:12px;font-family:0;color:#000000;direction:ltr;letter-spacing:0px;line-height:120%;opacity:1&quot;&gt;端口：9200&lt;/font&gt;&lt;/p&gt;&lt;/div&gt;" tags="Background" id="iiWaj7jSBL8KXbxFWDxD-40">
          <mxCell style="verticalAlign=middle;align=center;overflow=width;vsdxID=38;fillColor=none;gradientColor=none;shape=stencil(nZBLDoAgDERP0z3SI/i5B4koRAWC+Lu9kMaIxpW7mfZNkw5gOSvhJHA2B28Huek2KMAKONdGSa9DVIA1YNlZL3tvF9OSdyKRSU12TRd2yrGU4OzIXUPgqE0GFuw3evlP+Df6AKO4P6Ry8t27jTiiJrE+AQ==);strokeColor=#000000;strokeWidth=2;spacingTop=-3;spacingBottom=-3;spacingLeft=-3;spacingRight=-3;points=[];labelBackgroundColor=none;rounded=0;html=1;whiteSpace=wrap;opacity=0;" parent="iiWaj7jSBL8KXbxFWDxD-66" vertex="1">
            <mxGeometry x="620" y="789" width="102" height="40" as="geometry" />
          </mxCell>
        </UserObject>
        <UserObject label="&lt;div style=&quot;font-size: 1px&quot;&gt;&lt;p style=&quot;text-align:center;margin-left:0;margin-right:0;margin-top:0px;margin-bottom:0px;text-indent:0;vertical-align:middle;direction:ltr;&quot;&gt;&lt;font style=&quot;font-size:12px;font-family:0;color:#000000;direction:ltr;letter-spacing:0px;line-height:120%;opacity:1&quot;&gt;端口：9011、9012、9013、9014&lt;br/&gt;9001、9002、9003、9004&lt;br/&gt;&lt;/font&gt;&lt;/p&gt;&lt;/div&gt;" tags="Background" id="iiWaj7jSBL8KXbxFWDxD-41">
          <mxCell style="verticalAlign=middle;align=center;overflow=width;vsdxID=39;fillColor=none;gradientColor=none;shape=stencil(nZBLDoAgDERP0z3SI/i5B4koRAWC+Lu9kMaIxpW7mfZNkw5gOSvhJHA2B28Huek2KMAKONdGSa9DVIA1YNlZL3tvF9OSdyKRSU12TRd2yrGU4OzIXUPgqE0GFuw3evlP+Df6AKO4P6Ry8t27jTiiJrE+AQ==);strokeColor=#000000;strokeWidth=2;spacingTop=-3;spacingBottom=-3;spacingLeft=-3;spacingRight=-3;points=[];labelBackgroundColor=none;rounded=0;html=1;whiteSpace=wrap;opacity=0;" parent="iiWaj7jSBL8KXbxFWDxD-66" vertex="1">
            <mxGeometry x="33" y="987" width="210" height="40" as="geometry" />
          </mxCell>
        </UserObject>
        <UserObject label="" tags="Background" id="iiWaj7jSBL8KXbxFWDxD-42">
          <mxCell style="vsdxID=40;fillColor=none;gradientColor=none;image;aspect=fixed;image=data:image/png,iVBORw0KGgoAAAANSUhEUgAAACQAAABQCAYAAABxs9dPAAAAAXNSR0IArs4c6QAAA9FJREFUaEPtmktME1EUhv87nbbTlr6gQAFbHhqNxkQTRYNRjNH4AkmMC10Yda2JKzcmunCvLt24cSsmGOOWpa8Yja9E4hsliLSlLfQ5nZeZQQplkLY46Yw6s53bc77573/PnDu9pKP7cFCg+RsEpB+AFbpcEieB3KdF/iwJ9ewfIiBHdeFYlFQChki450BBP2VUMhRkIMkI6swxmEDlZoNcvTVkrCk7fv6SsYBMU5cx0d+xyoivqdxi0OS+lIyo4iypUGjHIRDGrRo8kZjWBEQJIgrgXg1XBrS6tx+XTh4rGTz8+h0GH77QB4he16Nd4mUi8e8eV6YQ1dBWEyBxarwyoK5dfWhpUUM9/fBVO9BqPCQDnTq4pyT5++9R3Hn0Uh8gy5qt2iVeJpLw8VllU1YTmt8kWbIOUf6WmjCJiYnKFOra1Q+Ls041eDSS0A60OlP348KJgZLkD95+0s/U9Npt2imxXGF8/7SyKaOaOmoCJEZGKwOS61B7KKQa/GDki3ag1XmoDyf29ZYkH43EdfRQ5ybtlFjOQ19eVTZlNaGppjCaQAsUWPLVYbiXq/zq2Nu9uWTmMiyn3yqTgbo3blBZaeiJelWs2G/V1CHDtbCGa/LlbdCpQ4ta2PEIBh/q1MLKQMFgq8oeujX5httKr3jlaPDDv+PrhwYPuuIQpkLlpDMVMhUqp0C5+6aHyiu0s89Yfy2s6jtjLKC5/zrymSzS8QT8Lc1ITEzC5fcik5gG43KCZwsQRQFWhgGbzcETqMdMLA5PYwAz0Rjc9X6k4gnYHAwEQYBQ4OCocyGXzsDbGMB0NFYcOxfXxtghK8HlWQRC898zi6aWgeLj39Hc1YHJz6PwtwaRik7B6fWUAGVnUvAHmxAbG0cgHELs2xga2lqVpEydqwRIfsD6tlZEv40Vx8px01MJ2J0OBaiQzaKxPVy0lglkKrTQ1KaHzFVm1iEAZmE0C+O/XRjzqRTcgQakYlOw17nApjOgbTbwBfkQFmCxWiFwnNKSZKdn4PT5kE0m4XC7kUulQNG00n4QSYLVbgfHsnD5fMgkk8Wxc3Epi0VpPyRBgC/YPN9+XLx201gd47kr140F9P8e17FQgCCW7IJoEPCKk+avmmwUmXYvvL1hZN5GkX7+Q8m+nrLjtM2Dx3wO9/i0uqcut4H7k/u+3WHYO7yQ8jwit0eUUMetHmy1MOAkCZfZKIRfCWqiEOWg4d4SRO5TEoWJWTUYQjBAu/FGyGNEnC0r8lUToGrUNd7RUyMdzgUwSDq3723mKfoGgXQEIDodX0aeAHeJnT37E2WXxf6oy9/MAAAAAElFTkSuQmCC;strokeColor=none;strokeWidth=0;points=[];labelBackgroundColor=none;rounded=0;html=1;whiteSpace=wrap;" parent="iiWaj7jSBL8KXbxFWDxD-66" vertex="1">
            <mxGeometry x="372" y="387" width="36" height="80" as="geometry" />
          </mxCell>
        </UserObject>
        <UserObject label="&lt;div style=&quot;font-size: 1px&quot;&gt;&lt;p style=&quot;text-align:center;margin-left:0;margin-right:0;margin-top:0px;margin-bottom:0px;text-indent:0;vertical-align:middle;direction:ltr;&quot;&gt;&lt;font style=&quot;font-size:12px;font-family:0;color:#000000;direction:ltr;letter-spacing:0px;line-height:120%;opacity:1&quot;&gt;172.23.10.88&lt;br&gt;nginx&lt;/font&gt;&lt;/p&gt;&lt;/div&gt;" tags="Background" id="iiWaj7jSBL8KXbxFWDxD-44">
          <mxCell style="verticalAlign=middle;align=center;overflow=width;vsdxID=42;fillColor=none;gradientColor=none;shape=stencil(nZBLDoAgDERP0z3SI/i5B4koRAWC+Lu9kMaIxpW7mfZNkw5gOSvhJHA2B28Huek2KMAKONdGSa9DVIA1YNlZL3tvF9OSdyKRSU12TRd2yrGU4OzIXUPgqE0GFuw3evlP+Df6AKO4P6Ry8t27jTiiJrE+AQ==);strokeColor=#000000;strokeWidth=2;spacingTop=-3;spacingBottom=-3;spacingLeft=-3;spacingRight=-3;points=[];labelBackgroundColor=none;rounded=0;html=1;whiteSpace=wrap;opacity=0;" parent="iiWaj7jSBL8KXbxFWDxD-66" vertex="1">
            <mxGeometry x="325.5" y="475" width="117" height="40" as="geometry" />
          </mxCell>
        </UserObject>
        <UserObject label="&lt;div style=&quot;font-size: 1px&quot;&gt;&lt;p style=&quot;text-align:center;margin-left:0;margin-right:0;margin-top:0px;margin-bottom:0px;text-indent:0;vertical-align:middle;direction:ltr;&quot;&gt;&lt;font style=&quot;font-size:12px;font-family:0;color:#000000;direction:ltr;letter-spacing:0px;line-height:120%;opacity:1&quot;&gt;172.23.10.90&lt;br/&gt;172.23.10.91&lt;br/&gt;&lt;/font&gt;&lt;font style=&quot;font-size:12px;font-family:0;color:#000000;direction:ltr;letter-spacing:0px;line-height:120%;opacity:1&quot;&gt;vip：172.23.10.89&lt;br/&gt;redis&lt;/font&gt;&lt;/p&gt;&lt;/div&gt;" tags="Background" id="iiWaj7jSBL8KXbxFWDxD-47">
          <mxCell style="verticalAlign=middle;align=center;overflow=width;vsdxID=45;fillColor=none;gradientColor=none;shape=stencil(nZBLDoAgDERP0z3SI/i5B4koRAWC+Lu9kMaIxpW7mfZNkw5gOSvhJHA2B28Huek2KMAKONdGSa9DVIA1YNlZL3tvF9OSdyKRSU12TRd2yrGU4OzIXUPgqE0GFuw3evlP+Df6AKO4P6Ry8t27jTiiJrE+AQ==);strokeColor=#000000;strokeWidth=2;spacingTop=-3;spacingBottom=-3;spacingLeft=-3;spacingRight=-3;points=[];labelBackgroundColor=none;rounded=0;html=1;whiteSpace=wrap;opacity=0;" parent="iiWaj7jSBL8KXbxFWDxD-66" vertex="1">
            <mxGeometry x="419" y="1120" width="117" height="65" as="geometry" />
          </mxCell>
        </UserObject>
        <UserObject label="&lt;div style=&quot;font-size: 1px&quot;&gt;&lt;p style=&quot;text-align:center;margin-left:0;margin-right:0;margin-top:0px;margin-bottom:0px;text-indent:0;vertical-align:middle;direction:ltr;&quot;&gt;&lt;font style=&quot;font-size:12px;font-family:0;color:#000000;direction:ltr;letter-spacing:0px;line-height:120%;opacity:1&quot;&gt;端口：6379&lt;/font&gt;&lt;/p&gt;&lt;/div&gt;" tags="Background" id="iiWaj7jSBL8KXbxFWDxD-48">
          <mxCell style="verticalAlign=middle;align=center;overflow=width;vsdxID=46;fillColor=none;gradientColor=none;shape=stencil(nZBLDoAgDERP0z3SI/i5B4koRAWC+Lu9kMaIxpW7mfZNkw5gOSvhJHA2B28Huek2KMAKONdGSa9DVIA1YNlZL3tvF9OSdyKRSU12TRd2yrGU4OzIXUPgqE0GFuw3evlP+Df6AKO4P6Ry8t27jTiiJrE+AQ==);strokeColor=#000000;strokeWidth=2;spacingTop=-3;spacingBottom=-3;spacingLeft=-3;spacingRight=-3;points=[];labelBackgroundColor=none;rounded=0;html=1;whiteSpace=wrap;opacity=0;" parent="iiWaj7jSBL8KXbxFWDxD-66" vertex="1">
            <mxGeometry x="434" y="1000" width="102" height="40" as="geometry" />
          </mxCell>
        </UserObject>
        <UserObject label="" tags="Background" id="iiWaj7jSBL8KXbxFWDxD-49">
          <mxCell style="vsdxID=47;fillColor=none;gradientColor=none;image;aspect=fixed;image=data:image/png,iVBORw0KGgoAAAANSUhEUgAAACQAAABQCAYAAABxs9dPAAAAAXNSR0IArs4c6QAAA9FJREFUaEPtmktME1EUhv87nbbTlr6gQAFbHhqNxkQTRYNRjNH4AkmMC10Yda2JKzcmunCvLt24cSsmGOOWpa8Yja9E4hsliLSlLfQ5nZeZQQplkLY46Yw6s53bc77573/PnDu9pKP7cFCg+RsEpB+AFbpcEieB3KdF/iwJ9ewfIiBHdeFYlFQChki450BBP2VUMhRkIMkI6swxmEDlZoNcvTVkrCk7fv6SsYBMU5cx0d+xyoivqdxi0OS+lIyo4iypUGjHIRDGrRo8kZjWBEQJIgrgXg1XBrS6tx+XTh4rGTz8+h0GH77QB4he16Nd4mUi8e8eV6YQ1dBWEyBxarwyoK5dfWhpUUM9/fBVO9BqPCQDnTq4pyT5++9R3Hn0Uh8gy5qt2iVeJpLw8VllU1YTmt8kWbIOUf6WmjCJiYnKFOra1Q+Ls041eDSS0A60OlP348KJgZLkD95+0s/U9Npt2imxXGF8/7SyKaOaOmoCJEZGKwOS61B7KKQa/GDki3ag1XmoDyf29ZYkH43EdfRQ5ybtlFjOQ19eVTZlNaGppjCaQAsUWPLVYbiXq/zq2Nu9uWTmMiyn3yqTgbo3blBZaeiJelWs2G/V1CHDtbCGa/LlbdCpQ4ta2PEIBh/q1MLKQMFgq8oeujX5httKr3jlaPDDv+PrhwYPuuIQpkLlpDMVMhUqp0C5+6aHyiu0s89Yfy2s6jtjLKC5/zrymSzS8QT8Lc1ITEzC5fcik5gG43KCZwsQRQFWhgGbzcETqMdMLA5PYwAz0Rjc9X6k4gnYHAwEQYBQ4OCocyGXzsDbGMB0NFYcOxfXxtghK8HlWQRC898zi6aWgeLj39Hc1YHJz6PwtwaRik7B6fWUAGVnUvAHmxAbG0cgHELs2xga2lqVpEydqwRIfsD6tlZEv40Vx8px01MJ2J0OBaiQzaKxPVy0lglkKrTQ1KaHzFVm1iEAZmE0C+O/XRjzqRTcgQakYlOw17nApjOgbTbwBfkQFmCxWiFwnNKSZKdn4PT5kE0m4XC7kUulQNG00n4QSYLVbgfHsnD5fMgkk8Wxc3Epi0VpPyRBgC/YPN9+XLx201gd47kr140F9P8e17FQgCCW7IJoEPCKk+avmmwUmXYvvL1hZN5GkX7+Q8m+nrLjtM2Dx3wO9/i0uqcut4H7k/u+3WHYO7yQ8jwit0eUUMetHmy1MOAkCZfZKIRfCWqiEOWg4d4SRO5TEoWJWTUYQjBAu/FGyGNEnC0r8lUToGrUNd7RUyMdzgUwSDq3723mKfoGgXQEIDodX0aeAHeJnT37E2WXxf6oy9/MAAAAAElFTkSuQmCC;strokeColor=none;strokeWidth=0;points=[];labelBackgroundColor=none;rounded=0;html=1;whiteSpace=wrap;" parent="iiWaj7jSBL8KXbxFWDxD-66" vertex="1">
            <mxGeometry x="253" y="609" width="36" height="80" as="geometry" />
          </mxCell>
        </UserObject>
        <UserObject label="&lt;div style=&quot;font-size: 1px&quot;&gt;&lt;p style=&quot;text-align:center;margin-left:0;margin-right:0;margin-top:0px;margin-bottom:0px;text-indent:0;vertical-align:middle;direction:ltr;&quot;&gt;&lt;font style=&quot;font-size:12px;font-family:0;color:#000000;direction:ltr;letter-spacing:0px;line-height:120%;opacity:1&quot;&gt;172.23.10.82&lt;br&gt;明道云微服务1&lt;/font&gt;&lt;/p&gt;&lt;/div&gt;" tags="Background" id="iiWaj7jSBL8KXbxFWDxD-51">
          <mxCell style="verticalAlign=middle;align=center;overflow=width;vsdxID=49;fillColor=none;gradientColor=none;shape=stencil(nZBLDoAgDERP0z3SI/i5B4koRAWC+Lu9kMaIxpW7mfZNkw5gOSvhJHA2B28Huek2KMAKONdGSa9DVIA1YNlZL3tvF9OSdyKRSU12TRd2yrGU4OzIXUPgqE0GFuw3evlP+Df6AKO4P6Ry8t27jTiiJrE+AQ==);strokeColor=#000000;strokeWidth=2;spacingTop=-3;spacingBottom=-3;spacingLeft=-3;spacingRight=-3;points=[];labelBackgroundColor=none;rounded=0;html=1;whiteSpace=wrap;opacity=0;" parent="iiWaj7jSBL8KXbxFWDxD-66" vertex="1">
            <mxGeometry x="212" y="694" width="117" height="40" as="geometry" />
          </mxCell>
        </UserObject>
        <UserObject label="&lt;div style=&quot;font-size: 1px&quot;&gt;&lt;p style=&quot;text-align:center;margin-left:0;margin-right:0;margin-top:0px;margin-bottom:0px;text-indent:0;vertical-align:middle;direction:ltr;&quot;&gt;&lt;br&gt;&lt;/p&gt;&lt;/div&gt;" tags="Background" id="iiWaj7jSBL8KXbxFWDxD-54">
          <mxCell style="vsdxID=52;edgeStyle=none;startArrow=none;endArrow=block;startSize=5;endSize=5;strokeWidth=2;spacingTop=0;spacingBottom=0;spacingLeft=0;spacingRight=0;verticalAlign=middle;html=1;labelBackgroundColor=#ffffff;rounded=0;align=center;exitX=0.5;exitY=1;exitDx=0;exitDy=0;exitPerimeter=0;entryX=0.5;entryY=0;entryDx=0;entryDy=0;entryPerimeter=0;" parent="iiWaj7jSBL8KXbxFWDxD-66" source="iiWaj7jSBL8KXbxFWDxD-8" target="iiWaj7jSBL8KXbxFWDxD-7" edge="1">
            <mxGeometry relative="1" as="geometry">
              <mxPoint x="-56" y="19" as="offset" />
              <Array as="points">
                <mxPoint x="496" y="127.5" />
                <mxPoint x="384.5" y="127.5" />
              </Array>
            </mxGeometry>
          </mxCell>
        </UserObject>
        <UserObject label="" tags="Background" id="iiWaj7jSBL8KXbxFWDxD-55">
          <mxCell style="vsdxID=53;edgeStyle=none;startArrow=none;endArrow=block;startSize=5;endSize=5;strokeWidth=2;spacingTop=0;spacingBottom=0;spacingLeft=0;spacingRight=0;verticalAlign=middle;html=1;labelBackgroundColor=#ffffff;rounded=0;exitX=0.5116279069767442;exitY=1;exitDx=0;exitDy=0;exitPerimeter=0;entryX=0.5;entryY=0;entryDx=0;entryDy=0;entryPerimeter=0;" parent="iiWaj7jSBL8KXbxFWDxD-66" source="iiWaj7jSBL8KXbxFWDxD-6" target="iiWaj7jSBL8KXbxFWDxD-7" edge="1">
            <mxGeometry relative="1" as="geometry">
              <mxPoint x="-57" y="153" as="offset" />
              <Array as="points">
                <mxPoint x="271" y="127.5" />
                <mxPoint x="384.5" y="127.5" />
              </Array>
            </mxGeometry>
          </mxCell>
        </UserObject>
        <mxCell id="iiWaj7jSBL8KXbxFWDxD-107" value="无" style="edgeLabel;html=1;align=center;verticalAlign=middle;resizable=0;points=[];" parent="iiWaj7jSBL8KXbxFWDxD-55" vertex="1" connectable="0">
          <mxGeometry x="0.6876" y="-2" relative="1" as="geometry">
            <mxPoint as="offset" />
          </mxGeometry>
        </mxCell>
        <mxCell id="iiWaj7jSBL8KXbxFWDxD-58" parent="iiWaj7jSBL8KXbxFWDxD-66" vertex="1">
          <mxGeometry x="384" y="272" as="geometry" />
        </mxCell>
        <UserObject label="" tags="Background" id="iiWaj7jSBL8KXbxFWDxD-59">
          <mxCell style="vsdxID=56;edgeStyle=none;startArrow=none;endArrow=block;startSize=5;endSize=5;strokeWidth=2;spacingTop=0;spacingBottom=0;spacingLeft=0;spacingRight=0;verticalAlign=middle;html=1;labelBackgroundColor=#ffffff;rounded=0;exitX=0.5;exitY=1;exitDx=0;exitDy=0;exitPerimeter=0;" parent="iiWaj7jSBL8KXbxFWDxD-66" source="iiWaj7jSBL8KXbxFWDxD-7" target="iiWaj7jSBL8KXbxFWDxD-58" edge="1">
            <mxGeometry relative="1" as="geometry">
              <mxPoint y="121" as="offset" />
              <Array as="points">
                <mxPoint x="384" y="252" />
                <mxPoint x="384" y="252" />
              </Array>
            </mxGeometry>
          </mxCell>
        </UserObject>
        <mxCell id="iiWaj7jSBL8KXbxFWDxD-62" parent="iiWaj7jSBL8KXbxFWDxD-66" vertex="1">
          <mxGeometry x="383" y="326" as="geometry" />
        </mxCell>
        <UserObject label="" tags="Background" id="iiWaj7jSBL8KXbxFWDxD-67">
          <mxCell style="vsdxID=7;fillColor=none;gradientColor=none;image;aspect=fixed;image=data:image/png,iVBORw0KGgoAAAANSUhEUgAAACQAAABQCAYAAABxs9dPAAAAAXNSR0IArs4c6QAAA9FJREFUaEPtmktME1EUhv87nbbTlr6gQAFbHhqNxkQTRYNRjNH4AkmMC10Yda2JKzcmunCvLt24cSsmGOOWpa8Yja9E4hsliLSlLfQ5nZeZQQplkLY46Yw6s53bc77573/PnDu9pKP7cFCg+RsEpB+AFbpcEieB3KdF/iwJ9ewfIiBHdeFYlFQChki450BBP2VUMhRkIMkI6swxmEDlZoNcvTVkrCk7fv6SsYBMU5cx0d+xyoivqdxi0OS+lIyo4iypUGjHIRDGrRo8kZjWBEQJIgrgXg1XBrS6tx+XTh4rGTz8+h0GH77QB4he16Nd4mUi8e8eV6YQ1dBWEyBxarwyoK5dfWhpUUM9/fBVO9BqPCQDnTq4pyT5++9R3Hn0Uh8gy5qt2iVeJpLw8VllU1YTmt8kWbIOUf6WmjCJiYnKFOra1Q+Ls041eDSS0A60OlP348KJgZLkD95+0s/U9Npt2imxXGF8/7SyKaOaOmoCJEZGKwOS61B7KKQa/GDki3ag1XmoDyf29ZYkH43EdfRQ5ybtlFjOQ19eVTZlNaGppjCaQAsUWPLVYbiXq/zq2Nu9uWTmMiyn3yqTgbo3blBZaeiJelWs2G/V1CHDtbCGa/LlbdCpQ4ta2PEIBh/q1MLKQMFgq8oeujX5httKr3jlaPDDv+PrhwYPuuIQpkLlpDMVMhUqp0C5+6aHyiu0s89Yfy2s6jtjLKC5/zrymSzS8QT8Lc1ITEzC5fcik5gG43KCZwsQRQFWhgGbzcETqMdMLA5PYwAz0Rjc9X6k4gnYHAwEQYBQ4OCocyGXzsDbGMB0NFYcOxfXxtghK8HlWQRC898zi6aWgeLj39Hc1YHJz6PwtwaRik7B6fWUAGVnUvAHmxAbG0cgHELs2xga2lqVpEydqwRIfsD6tlZEv40Vx8px01MJ2J0OBaiQzaKxPVy0lglkKrTQ1KaHzFVm1iEAZmE0C+O/XRjzqRTcgQakYlOw17nApjOgbTbwBfkQFmCxWiFwnNKSZKdn4PT5kE0m4XC7kUulQNG00n4QSYLVbgfHsnD5fMgkk8Wxc3Epi0VpPyRBgC/YPN9+XLx201gd47kr140F9P8e17FQgCCW7IJoEPCKk+avmmwUmXYvvL1hZN5GkX7+Q8m+nrLjtM2Dx3wO9/i0uqcut4H7k/u+3WHYO7yQ8jwit0eUUMetHmy1MOAkCZfZKIRfCWqiEOWg4d4SRO5TEoWJWTUYQjBAu/FGyGNEnC0r8lUToGrUNd7RUyMdzgUwSDq3723mKfoGgXQEIDodX0aeAHeJnT37E2WXxf6oy9/MAAAAAElFTkSuQmCC;strokeColor=none;strokeWidth=0;points=[];labelBackgroundColor=none;rounded=0;html=1;whiteSpace=wrap;" parent="iiWaj7jSBL8KXbxFWDxD-66" vertex="1">
            <mxGeometry x="50" y="827" width="36" height="80" as="geometry" />
          </mxCell>
        </UserObject>
        <UserObject label="" tags="Background" id="iiWaj7jSBL8KXbxFWDxD-68">
          <mxCell style="vsdxID=7;fillColor=none;gradientColor=none;image;aspect=fixed;image=data:image/png,iVBORw0KGgoAAAANSUhEUgAAACQAAABQCAYAAABxs9dPAAAAAXNSR0IArs4c6QAAA9FJREFUaEPtmktME1EUhv87nbbTlr6gQAFbHhqNxkQTRYNRjNH4AkmMC10Yda2JKzcmunCvLt24cSsmGOOWpa8Yja9E4hsliLSlLfQ5nZeZQQplkLY46Yw6s53bc77573/PnDu9pKP7cFCg+RsEpB+AFbpcEieB3KdF/iwJ9ewfIiBHdeFYlFQChki450BBP2VUMhRkIMkI6swxmEDlZoNcvTVkrCk7fv6SsYBMU5cx0d+xyoivqdxi0OS+lIyo4iypUGjHIRDGrRo8kZjWBEQJIgrgXg1XBrS6tx+XTh4rGTz8+h0GH77QB4he16Nd4mUi8e8eV6YQ1dBWEyBxarwyoK5dfWhpUUM9/fBVO9BqPCQDnTq4pyT5++9R3Hn0Uh8gy5qt2iVeJpLw8VllU1YTmt8kWbIOUf6WmjCJiYnKFOra1Q+Ls041eDSS0A60OlP348KJgZLkD95+0s/U9Npt2imxXGF8/7SyKaOaOmoCJEZGKwOS61B7KKQa/GDki3ag1XmoDyf29ZYkH43EdfRQ5ybtlFjOQ19eVTZlNaGppjCaQAsUWPLVYbiXq/zq2Nu9uWTmMiyn3yqTgbo3blBZaeiJelWs2G/V1CHDtbCGa/LlbdCpQ4ta2PEIBh/q1MLKQMFgq8oeujX5httKr3jlaPDDv+PrhwYPuuIQpkLlpDMVMhUqp0C5+6aHyiu0s89Yfy2s6jtjLKC5/zrymSzS8QT8Lc1ITEzC5fcik5gG43KCZwsQRQFWhgGbzcETqMdMLA5PYwAz0Rjc9X6k4gnYHAwEQYBQ4OCocyGXzsDbGMB0NFYcOxfXxtghK8HlWQRC898zi6aWgeLj39Hc1YHJz6PwtwaRik7B6fWUAGVnUvAHmxAbG0cgHELs2xga2lqVpEydqwRIfsD6tlZEv40Vx8px01MJ2J0OBaiQzaKxPVy0lglkKrTQ1KaHzFVm1iEAZmE0C+O/XRjzqRTcgQakYlOw17nApjOgbTbwBfkQFmCxWiFwnNKSZKdn4PT5kE0m4XC7kUulQNG00n4QSYLVbgfHsnD5fMgkk8Wxc3Epi0VpPyRBgC/YPN9+XLx201gd47kr140F9P8e17FQgCCW7IJoEPCKk+avmmwUmXYvvL1hZN5GkX7+Q8m+nrLjtM2Dx3wO9/i0uqcut4H7k/u+3WHYO7yQ8jwit0eUUMetHmy1MOAkCZfZKIRfCWqiEOWg4d4SRO5TEoWJWTUYQjBAu/FGyGNEnC0r8lUToGrUNd7RUyMdzgUwSDq3723mKfoGgXQEIDodX0aeAHeJnT37E2WXxf6oy9/MAAAAAElFTkSuQmCC;strokeColor=none;strokeWidth=0;points=[];labelBackgroundColor=none;rounded=0;html=1;whiteSpace=wrap;" parent="iiWaj7jSBL8KXbxFWDxD-66" vertex="1">
            <mxGeometry x="89" y="827" width="36" height="80" as="geometry" />
          </mxCell>
        </UserObject>
        <UserObject label="" tags="Background" id="iiWaj7jSBL8KXbxFWDxD-69">
          <mxCell style="vsdxID=7;fillColor=none;gradientColor=none;image;aspect=fixed;image=data:image/png,iVBORw0KGgoAAAANSUhEUgAAACQAAABQCAYAAABxs9dPAAAAAXNSR0IArs4c6QAAA9FJREFUaEPtmktME1EUhv87nbbTlr6gQAFbHhqNxkQTRYNRjNH4AkmMC10Yda2JKzcmunCvLt24cSsmGOOWpa8Yja9E4hsliLSlLfQ5nZeZQQplkLY46Yw6s53bc77573/PnDu9pKP7cFCg+RsEpB+AFbpcEieB3KdF/iwJ9ewfIiBHdeFYlFQChki450BBP2VUMhRkIMkI6swxmEDlZoNcvTVkrCk7fv6SsYBMU5cx0d+xyoivqdxi0OS+lIyo4iypUGjHIRDGrRo8kZjWBEQJIgrgXg1XBrS6tx+XTh4rGTz8+h0GH77QB4he16Nd4mUi8e8eV6YQ1dBWEyBxarwyoK5dfWhpUUM9/fBVO9BqPCQDnTq4pyT5++9R3Hn0Uh8gy5qt2iVeJpLw8VllU1YTmt8kWbIOUf6WmjCJiYnKFOra1Q+Ls041eDSS0A60OlP348KJgZLkD95+0s/U9Npt2imxXGF8/7SyKaOaOmoCJEZGKwOS61B7KKQa/GDki3ag1XmoDyf29ZYkH43EdfRQ5ybtlFjOQ19eVTZlNaGppjCaQAsUWPLVYbiXq/zq2Nu9uWTmMiyn3yqTgbo3blBZaeiJelWs2G/V1CHDtbCGa/LlbdCpQ4ta2PEIBh/q1MLKQMFgq8oeujX5httKr3jlaPDDv+PrhwYPuuIQpkLlpDMVMhUqp0C5+6aHyiu0s89Yfy2s6jtjLKC5/zrymSzS8QT8Lc1ITEzC5fcik5gG43KCZwsQRQFWhgGbzcETqMdMLA5PYwAz0Rjc9X6k4gnYHAwEQYBQ4OCocyGXzsDbGMB0NFYcOxfXxtghK8HlWQRC898zi6aWgeLj39Hc1YHJz6PwtwaRik7B6fWUAGVnUvAHmxAbG0cgHELs2xga2lqVpEydqwRIfsD6tlZEv40Vx8px01MJ2J0OBaiQzaKxPVy0lglkKrTQ1KaHzFVm1iEAZmE0C+O/XRjzqRTcgQakYlOw17nApjOgbTbwBfkQFmCxWiFwnNKSZKdn4PT5kE0m4XC7kUulQNG00n4QSYLVbgfHsnD5fMgkk8Wxc3Epi0VpPyRBgC/YPN9+XLx201gd47kr140F9P8e17FQgCCW7IJoEPCKk+avmmwUmXYvvL1hZN5GkX7+Q8m+nrLjtM2Dx3wO9/i0uqcut4H7k/u+3WHYO7yQ8jwit0eUUMetHmy1MOAkCZfZKIRfCWqiEOWg4d4SRO5TEoWJWTUYQjBAu/FGyGNEnC0r8lUToGrUNd7RUyMdzgUwSDq3723mKfoGgXQEIDodX0aeAHeJnT37E2WXxf6oy9/MAAAAAElFTkSuQmCC;strokeColor=none;strokeWidth=0;points=[];labelBackgroundColor=none;rounded=0;html=1;whiteSpace=wrap;" parent="iiWaj7jSBL8KXbxFWDxD-66" vertex="1">
            <mxGeometry x="128.5" y="827" width="36" height="80" as="geometry" />
          </mxCell>
        </UserObject>
        <UserObject label="" tags="Background" id="iiWaj7jSBL8KXbxFWDxD-70">
          <mxCell style="vsdxID=7;fillColor=none;gradientColor=none;image;aspect=fixed;image=data:image/png,iVBORw0KGgoAAAANSUhEUgAAACQAAABQCAYAAABxs9dPAAAAAXNSR0IArs4c6QAAA9FJREFUaEPtmktME1EUhv87nbbTlr6gQAFbHhqNxkQTRYNRjNH4AkmMC10Yda2JKzcmunCvLt24cSsmGOOWpa8Yja9E4hsliLSlLfQ5nZeZQQplkLY46Yw6s53bc77573/PnDu9pKP7cFCg+RsEpB+AFbpcEieB3KdF/iwJ9ewfIiBHdeFYlFQChki450BBP2VUMhRkIMkI6swxmEDlZoNcvTVkrCk7fv6SsYBMU5cx0d+xyoivqdxi0OS+lIyo4iypUGjHIRDGrRo8kZjWBEQJIgrgXg1XBrS6tx+XTh4rGTz8+h0GH77QB4he16Nd4mUi8e8eV6YQ1dBWEyBxarwyoK5dfWhpUUM9/fBVO9BqPCQDnTq4pyT5++9R3Hn0Uh8gy5qt2iVeJpLw8VllU1YTmt8kWbIOUf6WmjCJiYnKFOra1Q+Ls041eDSS0A60OlP348KJgZLkD95+0s/U9Npt2imxXGF8/7SyKaOaOmoCJEZGKwOS61B7KKQa/GDki3ag1XmoDyf29ZYkH43EdfRQ5ybtlFjOQ19eVTZlNaGppjCaQAsUWPLVYbiXq/zq2Nu9uWTmMiyn3yqTgbo3blBZaeiJelWs2G/V1CHDtbCGa/LlbdCpQ4ta2PEIBh/q1MLKQMFgq8oeujX5httKr3jlaPDDv+PrhwYPuuIQpkLlpDMVMhUqp0C5+6aHyiu0s89Yfy2s6jtjLKC5/zrymSzS8QT8Lc1ITEzC5fcik5gG43KCZwsQRQFWhgGbzcETqMdMLA5PYwAz0Rjc9X6k4gnYHAwEQYBQ4OCocyGXzsDbGMB0NFYcOxfXxtghK8HlWQRC898zi6aWgeLj39Hc1YHJz6PwtwaRik7B6fWUAGVnUvAHmxAbG0cgHELs2xga2lqVpEydqwRIfsD6tlZEv40Vx8px01MJ2J0OBaiQzaKxPVy0lglkKrTQ1KaHzFVm1iEAZmE0C+O/XRjzqRTcgQakYlOw17nApjOgbTbwBfkQFmCxWiFwnNKSZKdn4PT5kE0m4XC7kUulQNG00n4QSYLVbgfHsnD5fMgkk8Wxc3Epi0VpPyRBgC/YPN9+XLx201gd47kr140F9P8e17FQgCCW7IJoEPCKk+avmmwUmXYvvL1hZN5GkX7+Q8m+nrLjtM2Dx3wO9/i0uqcut4H7k/u+3WHYO7yQ8jwit0eUUMetHmy1MOAkCZfZKIRfCWqiEOWg4d4SRO5TEoWJWTUYQjBAu/FGyGNEnC0r8lUToGrUNd7RUyMdzgUwSDq3723mKfoGgXQEIDodX0aeAHeJnT37E2WXxf6oy9/MAAAAAElFTkSuQmCC;strokeColor=none;strokeWidth=0;points=[];labelBackgroundColor=none;rounded=0;html=1;whiteSpace=wrap;" parent="iiWaj7jSBL8KXbxFWDxD-66" vertex="1">
            <mxGeometry x="420.75" y="825" width="36" height="80" as="geometry" />
          </mxCell>
        </UserObject>
        <UserObject label="" tags="Background" id="iiWaj7jSBL8KXbxFWDxD-71">
          <mxCell style="vsdxID=7;fillColor=none;gradientColor=none;image;aspect=fixed;image=data:image/png,iVBORw0KGgoAAAANSUhEUgAAACQAAABQCAYAAABxs9dPAAAAAXNSR0IArs4c6QAAA9FJREFUaEPtmktME1EUhv87nbbTlr6gQAFbHhqNxkQTRYNRjNH4AkmMC10Yda2JKzcmunCvLt24cSsmGOOWpa8Yja9E4hsliLSlLfQ5nZeZQQplkLY46Yw6s53bc77573/PnDu9pKP7cFCg+RsEpB+AFbpcEieB3KdF/iwJ9ewfIiBHdeFYlFQChki450BBP2VUMhRkIMkI6swxmEDlZoNcvTVkrCk7fv6SsYBMU5cx0d+xyoivqdxi0OS+lIyo4iypUGjHIRDGrRo8kZjWBEQJIgrgXg1XBrS6tx+XTh4rGTz8+h0GH77QB4he16Nd4mUi8e8eV6YQ1dBWEyBxarwyoK5dfWhpUUM9/fBVO9BqPCQDnTq4pyT5++9R3Hn0Uh8gy5qt2iVeJpLw8VllU1YTmt8kWbIOUf6WmjCJiYnKFOra1Q+Ls041eDSS0A60OlP348KJgZLkD95+0s/U9Npt2imxXGF8/7SyKaOaOmoCJEZGKwOS61B7KKQa/GDki3ag1XmoDyf29ZYkH43EdfRQ5ybtlFjOQ19eVTZlNaGppjCaQAsUWPLVYbiXq/zq2Nu9uWTmMiyn3yqTgbo3blBZaeiJelWs2G/V1CHDtbCGa/LlbdCpQ4ta2PEIBh/q1MLKQMFgq8oeujX5httKr3jlaPDDv+PrhwYPuuIQpkLlpDMVMhUqp0C5+6aHyiu0s89Yfy2s6jtjLKC5/zrymSzS8QT8Lc1ITEzC5fcik5gG43KCZwsQRQFWhgGbzcETqMdMLA5PYwAz0Rjc9X6k4gnYHAwEQYBQ4OCocyGXzsDbGMB0NFYcOxfXxtghK8HlWQRC898zi6aWgeLj39Hc1YHJz6PwtwaRik7B6fWUAGVnUvAHmxAbG0cgHELs2xga2lqVpEydqwRIfsD6tlZEv40Vx8px01MJ2J0OBaiQzaKxPVy0lglkKrTQ1KaHzFVm1iEAZmE0C+O/XRjzqRTcgQakYlOw17nApjOgbTbwBfkQFmCxWiFwnNKSZKdn4PT5kE0m4XC7kUulQNG00n4QSYLVbgfHsnD5fMgkk8Wxc3Epi0VpPyRBgC/YPN9+XLx201gd47kr140F9P8e17FQgCCW7IJoEPCKk+avmmwUmXYvvL1hZN5GkX7+Q8m+nrLjtM2Dx3wO9/i0uqcut4H7k/u+3WHYO7yQ8jwit0eUUMetHmy1MOAkCZfZKIRfCWqiEOWg4d4SRO5TEoWJWTUYQjBAu/FGyGNEnC0r8lUToGrUNd7RUyMdzgUwSDq3723mKfoGgXQEIDodX0aeAHeJnT37E2WXxf6oy9/MAAAAAElFTkSuQmCC;strokeColor=none;strokeWidth=0;points=[];labelBackgroundColor=none;rounded=0;html=1;whiteSpace=wrap;" parent="iiWaj7jSBL8KXbxFWDxD-66" vertex="1">
            <mxGeometry x="459.75" y="825" width="36" height="80" as="geometry" />
          </mxCell>
        </UserObject>
        <UserObject label="" tags="Background" id="iiWaj7jSBL8KXbxFWDxD-72">
          <mxCell style="vsdxID=7;fillColor=none;gradientColor=none;image;aspect=fixed;image=data:image/png,iVBORw0KGgoAAAANSUhEUgAAACQAAABQCAYAAABxs9dPAAAAAXNSR0IArs4c6QAAA9FJREFUaEPtmktME1EUhv87nbbTlr6gQAFbHhqNxkQTRYNRjNH4AkmMC10Yda2JKzcmunCvLt24cSsmGOOWpa8Yja9E4hsliLSlLfQ5nZeZQQplkLY46Yw6s53bc77573/PnDu9pKP7cFCg+RsEpB+AFbpcEieB3KdF/iwJ9ewfIiBHdeFYlFQChki450BBP2VUMhRkIMkI6swxmEDlZoNcvTVkrCk7fv6SsYBMU5cx0d+xyoivqdxi0OS+lIyo4iypUGjHIRDGrRo8kZjWBEQJIgrgXg1XBrS6tx+XTh4rGTz8+h0GH77QB4he16Nd4mUi8e8eV6YQ1dBWEyBxarwyoK5dfWhpUUM9/fBVO9BqPCQDnTq4pyT5++9R3Hn0Uh8gy5qt2iVeJpLw8VllU1YTmt8kWbIOUf6WmjCJiYnKFOra1Q+Ls041eDSS0A60OlP348KJgZLkD95+0s/U9Npt2imxXGF8/7SyKaOaOmoCJEZGKwOS61B7KKQa/GDki3ag1XmoDyf29ZYkH43EdfRQ5ybtlFjOQ19eVTZlNaGppjCaQAsUWPLVYbiXq/zq2Nu9uWTmMiyn3yqTgbo3blBZaeiJelWs2G/V1CHDtbCGa/LlbdCpQ4ta2PEIBh/q1MLKQMFgq8oeujX5httKr3jlaPDDv+PrhwYPuuIQpkLlpDMVMhUqp0C5+6aHyiu0s89Yfy2s6jtjLKC5/zrymSzS8QT8Lc1ITEzC5fcik5gG43KCZwsQRQFWhgGbzcETqMdMLA5PYwAz0Rjc9X6k4gnYHAwEQYBQ4OCocyGXzsDbGMB0NFYcOxfXxtghK8HlWQRC898zi6aWgeLj39Hc1YHJz6PwtwaRik7B6fWUAGVnUvAHmxAbG0cgHELs2xga2lqVpEydqwRIfsD6tlZEv40Vx8px01MJ2J0OBaiQzaKxPVy0lglkKrTQ1KaHzFVm1iEAZmE0C+O/XRjzqRTcgQakYlOw17nApjOgbTbwBfkQFmCxWiFwnNKSZKdn4PT5kE0m4XC7kUulQNG00n4QSYLVbgfHsnD5fMgkk8Wxc3Epi0VpPyRBgC/YPN9+XLx201gd47kr140F9P8e17FQgCCW7IJoEPCKk+avmmwUmXYvvL1hZN5GkX7+Q8m+nrLjtM2Dx3wO9/i0uqcut4H7k/u+3WHYO7yQ8jwit0eUUMetHmy1MOAkCZfZKIRfCWqiEOWg4d4SRO5TEoWJWTUYQjBAu/FGyGNEnC0r8lUToGrUNd7RUyMdzgUwSDq3723mKfoGgXQEIDodX0aeAHeJnT37E2WXxf6oy9/MAAAAAElFTkSuQmCC;strokeColor=none;strokeWidth=0;points=[];labelBackgroundColor=none;rounded=0;html=1;whiteSpace=wrap;" parent="iiWaj7jSBL8KXbxFWDxD-66" vertex="1">
            <mxGeometry x="499.25" y="825" width="36" height="80" as="geometry" />
          </mxCell>
        </UserObject>
        <UserObject label="" tags="Background" id="iiWaj7jSBL8KXbxFWDxD-73">
          <mxCell style="vsdxID=7;fillColor=none;gradientColor=none;image;aspect=fixed;image=data:image/png,iVBORw0KGgoAAAANSUhEUgAAACQAAABQCAYAAABxs9dPAAAAAXNSR0IArs4c6QAAA9FJREFUaEPtmktME1EUhv87nbbTlr6gQAFbHhqNxkQTRYNRjNH4AkmMC10Yda2JKzcmunCvLt24cSsmGOOWpa8Yja9E4hsliLSlLfQ5nZeZQQplkLY46Yw6s53bc77573/PnDu9pKP7cFCg+RsEpB+AFbpcEieB3KdF/iwJ9ewfIiBHdeFYlFQChki450BBP2VUMhRkIMkI6swxmEDlZoNcvTVkrCk7fv6SsYBMU5cx0d+xyoivqdxi0OS+lIyo4iypUGjHIRDGrRo8kZjWBEQJIgrgXg1XBrS6tx+XTh4rGTz8+h0GH77QB4he16Nd4mUi8e8eV6YQ1dBWEyBxarwyoK5dfWhpUUM9/fBVO9BqPCQDnTq4pyT5++9R3Hn0Uh8gy5qt2iVeJpLw8VllU1YTmt8kWbIOUf6WmjCJiYnKFOra1Q+Ls041eDSS0A60OlP348KJgZLkD95+0s/U9Npt2imxXGF8/7SyKaOaOmoCJEZGKwOS61B7KKQa/GDki3ag1XmoDyf29ZYkH43EdfRQ5ybtlFjOQ19eVTZlNaGppjCaQAsUWPLVYbiXq/zq2Nu9uWTmMiyn3yqTgbo3blBZaeiJelWs2G/V1CHDtbCGa/LlbdCpQ4ta2PEIBh/q1MLKQMFgq8oeujX5httKr3jlaPDDv+PrhwYPuuIQpkLlpDMVMhUqp0C5+6aHyiu0s89Yfy2s6jtjLKC5/zrymSzS8QT8Lc1ITEzC5fcik5gG43KCZwsQRQFWhgGbzcETqMdMLA5PYwAz0Rjc9X6k4gnYHAwEQYBQ4OCocyGXzsDbGMB0NFYcOxfXxtghK8HlWQRC898zi6aWgeLj39Hc1YHJz6PwtwaRik7B6fWUAGVnUvAHmxAbG0cgHELs2xga2lqVpEydqwRIfsD6tlZEv40Vx8px01MJ2J0OBaiQzaKxPVy0lglkKrTQ1KaHzFVm1iEAZmE0C+O/XRjzqRTcgQakYlOw17nApjOgbTbwBfkQFmCxWiFwnNKSZKdn4PT5kE0m4XC7kUulQNG00n4QSYLVbgfHsnD5fMgkk8Wxc3Epi0VpPyRBgC/YPN9+XLx201gd47kr140F9P8e17FQgCCW7IJoEPCKk+avmmwUmXYvvL1hZN5GkX7+Q8m+nrLjtM2Dx3wO9/i0uqcut4H7k/u+3WHYO7yQ8jwit0eUUMetHmy1MOAkCZfZKIRfCWqiEOWg4d4SRO5TEoWJWTUYQjBAu/FGyGNEnC0r8lUToGrUNd7RUyMdzgUwSDq3723mKfoGgXQEIDodX0aeAHeJnT37E2WXxf6oy9/MAAAAAElFTkSuQmCC;strokeColor=none;strokeWidth=0;points=[];labelBackgroundColor=none;rounded=0;html=1;whiteSpace=wrap;" parent="iiWaj7jSBL8KXbxFWDxD-66" vertex="1">
            <mxGeometry x="603" y="823" width="36" height="80" as="geometry" />
          </mxCell>
        </UserObject>
        <UserObject label="" tags="Background" id="iiWaj7jSBL8KXbxFWDxD-74">
          <mxCell style="vsdxID=7;fillColor=none;gradientColor=none;image;aspect=fixed;image=data:image/png,iVBORw0KGgoAAAANSUhEUgAAACQAAABQCAYAAABxs9dPAAAAAXNSR0IArs4c6QAAA9FJREFUaEPtmktME1EUhv87nbbTlr6gQAFbHhqNxkQTRYNRjNH4AkmMC10Yda2JKzcmunCvLt24cSsmGOOWpa8Yja9E4hsliLSlLfQ5nZeZQQplkLY46Yw6s53bc77573/PnDu9pKP7cFCg+RsEpB+AFbpcEieB3KdF/iwJ9ewfIiBHdeFYlFQChki450BBP2VUMhRkIMkI6swxmEDlZoNcvTVkrCk7fv6SsYBMU5cx0d+xyoivqdxi0OS+lIyo4iypUGjHIRDGrRo8kZjWBEQJIgrgXg1XBrS6tx+XTh4rGTz8+h0GH77QB4he16Nd4mUi8e8eV6YQ1dBWEyBxarwyoK5dfWhpUUM9/fBVO9BqPCQDnTq4pyT5++9R3Hn0Uh8gy5qt2iVeJpLw8VllU1YTmt8kWbIOUf6WmjCJiYnKFOra1Q+Ls041eDSS0A60OlP348KJgZLkD95+0s/U9Npt2imxXGF8/7SyKaOaOmoCJEZGKwOS61B7KKQa/GDki3ag1XmoDyf29ZYkH43EdfRQ5ybtlFjOQ19eVTZlNaGppjCaQAsUWPLVYbiXq/zq2Nu9uWTmMiyn3yqTgbo3blBZaeiJelWs2G/V1CHDtbCGa/LlbdCpQ4ta2PEIBh/q1MLKQMFgq8oeujX5httKr3jlaPDDv+PrhwYPuuIQpkLlpDMVMhUqp0C5+6aHyiu0s89Yfy2s6jtjLKC5/zrymSzS8QT8Lc1ITEzC5fcik5gG43KCZwsQRQFWhgGbzcETqMdMLA5PYwAz0Rjc9X6k4gnYHAwEQYBQ4OCocyGXzsDbGMB0NFYcOxfXxtghK8HlWQRC898zi6aWgeLj39Hc1YHJz6PwtwaRik7B6fWUAGVnUvAHmxAbG0cgHELs2xga2lqVpEydqwRIfsD6tlZEv40Vx8px01MJ2J0OBaiQzaKxPVy0lglkKrTQ1KaHzFVm1iEAZmE0C+O/XRjzqRTcgQakYlOw17nApjOgbTbwBfkQFmCxWiFwnNKSZKdn4PT5kE0m4XC7kUulQNG00n4QSYLVbgfHsnD5fMgkk8Wxc3Epi0VpPyRBgC/YPN9+XLx201gd47kr140F9P8e17FQgCCW7IJoEPCKk+avmmwUmXYvvL1hZN5GkX7+Q8m+nrLjtM2Dx3wO9/i0uqcut4H7k/u+3WHYO7yQ8jwit0eUUMetHmy1MOAkCZfZKIRfCWqiEOWg4d4SRO5TEoWJWTUYQjBAu/FGyGNEnC0r8lUToGrUNd7RUyMdzgUwSDq3723mKfoGgXQEIDodX0aeAHeJnT37E2WXxf6oy9/MAAAAAElFTkSuQmCC;strokeColor=none;strokeWidth=0;points=[];labelBackgroundColor=none;rounded=0;html=1;whiteSpace=wrap;" parent="iiWaj7jSBL8KXbxFWDxD-66" vertex="1">
            <mxGeometry x="642" y="823" width="36" height="80" as="geometry" />
          </mxCell>
        </UserObject>
        <UserObject label="" tags="Background" id="iiWaj7jSBL8KXbxFWDxD-75">
          <mxCell style="vsdxID=7;fillColor=none;gradientColor=none;image;aspect=fixed;image=data:image/png,iVBORw0KGgoAAAANSUhEUgAAACQAAABQCAYAAABxs9dPAAAAAXNSR0IArs4c6QAAA9FJREFUaEPtmktME1EUhv87nbbTlr6gQAFbHhqNxkQTRYNRjNH4AkmMC10Yda2JKzcmunCvLt24cSsmGOOWpa8Yja9E4hsliLSlLfQ5nZeZQQplkLY46Yw6s53bc77573/PnDu9pKP7cFCg+RsEpB+AFbpcEieB3KdF/iwJ9ewfIiBHdeFYlFQChki450BBP2VUMhRkIMkI6swxmEDlZoNcvTVkrCk7fv6SsYBMU5cx0d+xyoivqdxi0OS+lIyo4iypUGjHIRDGrRo8kZjWBEQJIgrgXg1XBrS6tx+XTh4rGTz8+h0GH77QB4he16Nd4mUi8e8eV6YQ1dBWEyBxarwyoK5dfWhpUUM9/fBVO9BqPCQDnTq4pyT5++9R3Hn0Uh8gy5qt2iVeJpLw8VllU1YTmt8kWbIOUf6WmjCJiYnKFOra1Q+Ls041eDSS0A60OlP348KJgZLkD95+0s/U9Npt2imxXGF8/7SyKaOaOmoCJEZGKwOS61B7KKQa/GDki3ag1XmoDyf29ZYkH43EdfRQ5ybtlFjOQ19eVTZlNaGppjCaQAsUWPLVYbiXq/zq2Nu9uWTmMiyn3yqTgbo3blBZaeiJelWs2G/V1CHDtbCGa/LlbdCpQ4ta2PEIBh/q1MLKQMFgq8oeujX5httKr3jlaPDDv+PrhwYPuuIQpkLlpDMVMhUqp0C5+6aHyiu0s89Yfy2s6jtjLKC5/zrymSzS8QT8Lc1ITEzC5fcik5gG43KCZwsQRQFWhgGbzcETqMdMLA5PYwAz0Rjc9X6k4gnYHAwEQYBQ4OCocyGXzsDbGMB0NFYcOxfXxtghK8HlWQRC898zi6aWgeLj39Hc1YHJz6PwtwaRik7B6fWUAGVnUvAHmxAbG0cgHELs2xga2lqVpEydqwRIfsD6tlZEv40Vx8px01MJ2J0OBaiQzaKxPVy0lglkKrTQ1KaHzFVm1iEAZmE0C+O/XRjzqRTcgQakYlOw17nApjOgbTbwBfkQFmCxWiFwnNKSZKdn4PT5kE0m4XC7kUulQNG00n4QSYLVbgfHsnD5fMgkk8Wxc3Epi0VpPyRBgC/YPN9+XLx201gd47kr140F9P8e17FQgCCW7IJoEPCKk+avmmwUmXYvvL1hZN5GkX7+Q8m+nrLjtM2Dx3wO9/i0uqcut4H7k/u+3WHYO7yQ8jwit0eUUMetHmy1MOAkCZfZKIRfCWqiEOWg4d4SRO5TEoWJWTUYQjBAu/FGyGNEnC0r8lUToGrUNd7RUyMdzgUwSDq3723mKfoGgXQEIDodX0aeAHeJnT37E2WXxf6oy9/MAAAAAElFTkSuQmCC;strokeColor=none;strokeWidth=0;points=[];labelBackgroundColor=none;rounded=0;html=1;whiteSpace=wrap;" parent="iiWaj7jSBL8KXbxFWDxD-66" vertex="1">
            <mxGeometry x="681.5" y="823" width="36" height="80" as="geometry" />
          </mxCell>
        </UserObject>
        <UserObject label="" tags="Background" id="iiWaj7jSBL8KXbxFWDxD-79">
          <mxCell style="vsdxID=7;fillColor=none;gradientColor=none;image;aspect=fixed;image=data:image/png,iVBORw0KGgoAAAANSUhEUgAAACQAAABQCAYAAABxs9dPAAAAAXNSR0IArs4c6QAAA9FJREFUaEPtmktME1EUhv87nbbTlr6gQAFbHhqNxkQTRYNRjNH4AkmMC10Yda2JKzcmunCvLt24cSsmGOOWpa8Yja9E4hsliLSlLfQ5nZeZQQplkLY46Yw6s53bc77573/PnDu9pKP7cFCg+RsEpB+AFbpcEieB3KdF/iwJ9ewfIiBHdeFYlFQChki450BBP2VUMhRkIMkI6swxmEDlZoNcvTVkrCk7fv6SsYBMU5cx0d+xyoivqdxi0OS+lIyo4iypUGjHIRDGrRo8kZjWBEQJIgrgXg1XBrS6tx+XTh4rGTz8+h0GH77QB4he16Nd4mUi8e8eV6YQ1dBWEyBxarwyoK5dfWhpUUM9/fBVO9BqPCQDnTq4pyT5++9R3Hn0Uh8gy5qt2iVeJpLw8VllU1YTmt8kWbIOUf6WmjCJiYnKFOra1Q+Ls041eDSS0A60OlP348KJgZLkD95+0s/U9Npt2imxXGF8/7SyKaOaOmoCJEZGKwOS61B7KKQa/GDki3ag1XmoDyf29ZYkH43EdfRQ5ybtlFjOQ19eVTZlNaGppjCaQAsUWPLVYbiXq/zq2Nu9uWTmMiyn3yqTgbo3blBZaeiJelWs2G/V1CHDtbCGa/LlbdCpQ4ta2PEIBh/q1MLKQMFgq8oeujX5httKr3jlaPDDv+PrhwYPuuIQpkLlpDMVMhUqp0C5+6aHyiu0s89Yfy2s6jtjLKC5/zrymSzS8QT8Lc1ITEzC5fcik5gG43KCZwsQRQFWhgGbzcETqMdMLA5PYwAz0Rjc9X6k4gnYHAwEQYBQ4OCocyGXzsDbGMB0NFYcOxfXxtghK8HlWQRC898zi6aWgeLj39Hc1YHJz6PwtwaRik7B6fWUAGVnUvAHmxAbG0cgHELs2xga2lqVpEydqwRIfsD6tlZEv40Vx8px01MJ2J0OBaiQzaKxPVy0lglkKrTQ1KaHzFVm1iEAZmE0C+O/XRjzqRTcgQakYlOw17nApjOgbTbwBfkQFmCxWiFwnNKSZKdn4PT5kE0m4XC7kUulQNG00n4QSYLVbgfHsnD5fMgkk8Wxc3Epi0VpPyRBgC/YPN9+XLx201gd47kr140F9P8e17FQgCCW7IJoEPCKk+avmmwUmXYvvL1hZN5GkX7+Q8m+nrLjtM2Dx3wO9/i0uqcut4H7k/u+3WHYO7yQ8jwit0eUUMetHmy1MOAkCZfZKIRfCWqiEOWg4d4SRO5TEoWJWTUYQjBAu/FGyGNEnC0r8lUToGrUNd7RUyMdzgUwSDq3723mKfoGgXQEIDodX0aeAHeJnT37E2WXxf6oy9/MAAAAAElFTkSuQmCC;strokeColor=none;strokeWidth=0;points=[];labelBackgroundColor=none;rounded=0;html=1;whiteSpace=wrap;" parent="iiWaj7jSBL8KXbxFWDxD-66" vertex="1">
            <mxGeometry x="237" y="827" width="36" height="80" as="geometry" />
          </mxCell>
        </UserObject>
        <UserObject label="" tags="Background" id="iiWaj7jSBL8KXbxFWDxD-80">
          <mxCell style="vsdxID=7;fillColor=none;gradientColor=none;image;aspect=fixed;image=data:image/png,iVBORw0KGgoAAAANSUhEUgAAACQAAABQCAYAAABxs9dPAAAAAXNSR0IArs4c6QAAA9FJREFUaEPtmktME1EUhv87nbbTlr6gQAFbHhqNxkQTRYNRjNH4AkmMC10Yda2JKzcmunCvLt24cSsmGOOWpa8Yja9E4hsliLSlLfQ5nZeZQQplkLY46Yw6s53bc77573/PnDu9pKP7cFCg+RsEpB+AFbpcEieB3KdF/iwJ9ewfIiBHdeFYlFQChki450BBP2VUMhRkIMkI6swxmEDlZoNcvTVkrCk7fv6SsYBMU5cx0d+xyoivqdxi0OS+lIyo4iypUGjHIRDGrRo8kZjWBEQJIgrgXg1XBrS6tx+XTh4rGTz8+h0GH77QB4he16Nd4mUi8e8eV6YQ1dBWEyBxarwyoK5dfWhpUUM9/fBVO9BqPCQDnTq4pyT5++9R3Hn0Uh8gy5qt2iVeJpLw8VllU1YTmt8kWbIOUf6WmjCJiYnKFOra1Q+Ls041eDSS0A60OlP348KJgZLkD95+0s/U9Npt2imxXGF8/7SyKaOaOmoCJEZGKwOS61B7KKQa/GDki3ag1XmoDyf29ZYkH43EdfRQ5ybtlFjOQ19eVTZlNaGppjCaQAsUWPLVYbiXq/zq2Nu9uWTmMiyn3yqTgbo3blBZaeiJelWs2G/V1CHDtbCGa/LlbdCpQ4ta2PEIBh/q1MLKQMFgq8oeujX5httKr3jlaPDDv+PrhwYPuuIQpkLlpDMVMhUqp0C5+6aHyiu0s89Yfy2s6jtjLKC5/zrymSzS8QT8Lc1ITEzC5fcik5gG43KCZwsQRQFWhgGbzcETqMdMLA5PYwAz0Rjc9X6k4gnYHAwEQYBQ4OCocyGXzsDbGMB0NFYcOxfXxtghK8HlWQRC898zi6aWgeLj39Hc1YHJz6PwtwaRik7B6fWUAGVnUvAHmxAbG0cgHELs2xga2lqVpEydqwRIfsD6tlZEv40Vx8px01MJ2J0OBaiQzaKxPVy0lglkKrTQ1KaHzFVm1iEAZmE0C+O/XRjzqRTcgQakYlOw17nApjOgbTbwBfkQFmCxWiFwnNKSZKdn4PT5kE0m4XC7kUulQNG00n4QSYLVbgfHsnD5fMgkk8Wxc3Epi0VpPyRBgC/YPN9+XLx201gd47kr140F9P8e17FQgCCW7IJoEPCKk+avmmwUmXYvvL1hZN5GkX7+Q8m+nrLjtM2Dx3wO9/i0uqcut4H7k/u+3WHYO7yQ8jwit0eUUMetHmy1MOAkCZfZKIRfCWqiEOWg4d4SRO5TEoWJWTUYQjBAu/FGyGNEnC0r8lUToGrUNd7RUyMdzgUwSDq3723mKfoGgXQEIDodX0aeAHeJnT37E2WXxf6oy9/MAAAAAElFTkSuQmCC;strokeColor=none;strokeWidth=0;points=[];labelBackgroundColor=none;rounded=0;html=1;whiteSpace=wrap;" parent="iiWaj7jSBL8KXbxFWDxD-66" vertex="1">
            <mxGeometry x="276" y="827" width="36" height="80" as="geometry" />
          </mxCell>
        </UserObject>
        <UserObject label="" tags="Background" id="iiWaj7jSBL8KXbxFWDxD-85">
          <mxCell style="vsdxID=7;fillColor=none;gradientColor=none;image;aspect=fixed;image=data:image/png,iVBORw0KGgoAAAANSUhEUgAAACQAAABQCAYAAABxs9dPAAAAAXNSR0IArs4c6QAAA9FJREFUaEPtmktME1EUhv87nbbTlr6gQAFbHhqNxkQTRYNRjNH4AkmMC10Yda2JKzcmunCvLt24cSsmGOOWpa8Yja9E4hsliLSlLfQ5nZeZQQplkLY46Yw6s53bc77573/PnDu9pKP7cFCg+RsEpB+AFbpcEieB3KdF/iwJ9ewfIiBHdeFYlFQChki450BBP2VUMhRkIMkI6swxmEDlZoNcvTVkrCk7fv6SsYBMU5cx0d+xyoivqdxi0OS+lIyo4iypUGjHIRDGrRo8kZjWBEQJIgrgXg1XBrS6tx+XTh4rGTz8+h0GH77QB4he16Nd4mUi8e8eV6YQ1dBWEyBxarwyoK5dfWhpUUM9/fBVO9BqPCQDnTq4pyT5++9R3Hn0Uh8gy5qt2iVeJpLw8VllU1YTmt8kWbIOUf6WmjCJiYnKFOra1Q+Ls041eDSS0A60OlP348KJgZLkD95+0s/U9Npt2imxXGF8/7SyKaOaOmoCJEZGKwOS61B7KKQa/GDki3ag1XmoDyf29ZYkH43EdfRQ5ybtlFjOQ19eVTZlNaGppjCaQAsUWPLVYbiXq/zq2Nu9uWTmMiyn3yqTgbo3blBZaeiJelWs2G/V1CHDtbCGa/LlbdCpQ4ta2PEIBh/q1MLKQMFgq8oeujX5httKr3jlaPDDv+PrhwYPuuIQpkLlpDMVMhUqp0C5+6aHyiu0s89Yfy2s6jtjLKC5/zrymSzS8QT8Lc1ITEzC5fcik5gG43KCZwsQRQFWhgGbzcETqMdMLA5PYwAz0Rjc9X6k4gnYHAwEQYBQ4OCocyGXzsDbGMB0NFYcOxfXxtghK8HlWQRC898zi6aWgeLj39Hc1YHJz6PwtwaRik7B6fWUAGVnUvAHmxAbG0cgHELs2xga2lqVpEydqwRIfsD6tlZEv40Vx8px01MJ2J0OBaiQzaKxPVy0lglkKrTQ1KaHzFVm1iEAZmE0C+O/XRjzqRTcgQakYlOw17nApjOgbTbwBfkQFmCxWiFwnNKSZKdn4PT5kE0m4XC7kUulQNG00n4QSYLVbgfHsnD5fMgkk8Wxc3Epi0VpPyRBgC/YPN9+XLx201gd47kr140F9P8e17FQgCCW7IJoEPCKk+avmmwUmXYvvL1hZN5GkX7+Q8m+nrLjtM2Dx3wO9/i0uqcut4H7k/u+3WHYO7yQ8jwit0eUUMetHmy1MOAkCZfZKIRfCWqiEOWg4d4SRO5TEoWJWTUYQjBAu/FGyGNEnC0r8lUToGrUNd7RUyMdzgUwSDq3723mKfoGgXQEIDodX0aeAHeJnT37E2WXxf6oy9/MAAAAAElFTkSuQmCC;strokeColor=none;strokeWidth=0;points=[];labelBackgroundColor=none;rounded=0;html=1;whiteSpace=wrap;" parent="iiWaj7jSBL8KXbxFWDxD-66" vertex="1">
            <mxGeometry x="446.25" y="1032" width="36" height="80" as="geometry" />
          </mxCell>
        </UserObject>
        <UserObject label="" tags="Background" id="iiWaj7jSBL8KXbxFWDxD-86">
          <mxCell style="vsdxID=7;fillColor=none;gradientColor=none;image;aspect=fixed;image=data:image/png,iVBORw0KGgoAAAANSUhEUgAAACQAAABQCAYAAABxs9dPAAAAAXNSR0IArs4c6QAAA9FJREFUaEPtmktME1EUhv87nbbTlr6gQAFbHhqNxkQTRYNRjNH4AkmMC10Yda2JKzcmunCvLt24cSsmGOOWpa8Yja9E4hsliLSlLfQ5nZeZQQplkLY46Yw6s53bc77573/PnDu9pKP7cFCg+RsEpB+AFbpcEieB3KdF/iwJ9ewfIiBHdeFYlFQChki450BBP2VUMhRkIMkI6swxmEDlZoNcvTVkrCk7fv6SsYBMU5cx0d+xyoivqdxi0OS+lIyo4iypUGjHIRDGrRo8kZjWBEQJIgrgXg1XBrS6tx+XTh4rGTz8+h0GH77QB4he16Nd4mUi8e8eV6YQ1dBWEyBxarwyoK5dfWhpUUM9/fBVO9BqPCQDnTq4pyT5++9R3Hn0Uh8gy5qt2iVeJpLw8VllU1YTmt8kWbIOUf6WmjCJiYnKFOra1Q+Ls041eDSS0A60OlP348KJgZLkD95+0s/U9Npt2imxXGF8/7SyKaOaOmoCJEZGKwOS61B7KKQa/GDki3ag1XmoDyf29ZYkH43EdfRQ5ybtlFjOQ19eVTZlNaGppjCaQAsUWPLVYbiXq/zq2Nu9uWTmMiyn3yqTgbo3blBZaeiJelWs2G/V1CHDtbCGa/LlbdCpQ4ta2PEIBh/q1MLKQMFgq8oeujX5httKr3jlaPDDv+PrhwYPuuIQpkLlpDMVMhUqp0C5+6aHyiu0s89Yfy2s6jtjLKC5/zrymSzS8QT8Lc1ITEzC5fcik5gG43KCZwsQRQFWhgGbzcETqMdMLA5PYwAz0Rjc9X6k4gnYHAwEQYBQ4OCocyGXzsDbGMB0NFYcOxfXxtghK8HlWQRC898zi6aWgeLj39Hc1YHJz6PwtwaRik7B6fWUAGVnUvAHmxAbG0cgHELs2xga2lqVpEydqwRIfsD6tlZEv40Vx8px01MJ2J0OBaiQzaKxPVy0lglkKrTQ1KaHzFVm1iEAZmE0C+O/XRjzqRTcgQakYlOw17nApjOgbTbwBfkQFmCxWiFwnNKSZKdn4PT5kE0m4XC7kUulQNG00n4QSYLVbgfHsnD5fMgkk8Wxc3Epi0VpPyRBgC/YPN9+XLx201gd47kr140F9P8e17FQgCCW7IJoEPCKk+avmmwUmXYvvL1hZN5GkX7+Q8m+nrLjtM2Dx3wO9/i0uqcut4H7k/u+3WHYO7yQ8jwit0eUUMetHmy1MOAkCZfZKIRfCWqiEOWg4d4SRO5TEoWJWTUYQjBAu/FGyGNEnC0r8lUToGrUNd7RUyMdzgUwSDq3723mKfoGgXQEIDodX0aeAHeJnT37E2WXxf6oy9/MAAAAAElFTkSuQmCC;strokeColor=none;strokeWidth=0;points=[];labelBackgroundColor=none;rounded=0;html=1;whiteSpace=wrap;" parent="iiWaj7jSBL8KXbxFWDxD-66" vertex="1">
            <mxGeometry x="485.25" y="1032" width="36" height="80" as="geometry" />
          </mxCell>
        </UserObject>
        <UserObject label="" tags="Background" id="iiWaj7jSBL8KXbxFWDxD-88">
          <mxCell style="vsdxID=7;fillColor=none;gradientColor=none;image;aspect=fixed;image=data:image/png,iVBORw0KGgoAAAANSUhEUgAAACQAAABQCAYAAABxs9dPAAAAAXNSR0IArs4c6QAAA9FJREFUaEPtmktME1EUhv87nbbTlr6gQAFbHhqNxkQTRYNRjNH4AkmMC10Yda2JKzcmunCvLt24cSsmGOOWpa8Yja9E4hsliLSlLfQ5nZeZQQplkLY46Yw6s53bc77573/PnDu9pKP7cFCg+RsEpB+AFbpcEieB3KdF/iwJ9ewfIiBHdeFYlFQChki450BBP2VUMhRkIMkI6swxmEDlZoNcvTVkrCk7fv6SsYBMU5cx0d+xyoivqdxi0OS+lIyo4iypUGjHIRDGrRo8kZjWBEQJIgrgXg1XBrS6tx+XTh4rGTz8+h0GH77QB4he16Nd4mUi8e8eV6YQ1dBWEyBxarwyoK5dfWhpUUM9/fBVO9BqPCQDnTq4pyT5++9R3Hn0Uh8gy5qt2iVeJpLw8VllU1YTmt8kWbIOUf6WmjCJiYnKFOra1Q+Ls041eDSS0A60OlP348KJgZLkD95+0s/U9Npt2imxXGF8/7SyKaOaOmoCJEZGKwOS61B7KKQa/GDki3ag1XmoDyf29ZYkH43EdfRQ5ybtlFjOQ19eVTZlNaGppjCaQAsUWPLVYbiXq/zq2Nu9uWTmMiyn3yqTgbo3blBZaeiJelWs2G/V1CHDtbCGa/LlbdCpQ4ta2PEIBh/q1MLKQMFgq8oeujX5httKr3jlaPDDv+PrhwYPuuIQpkLlpDMVMhUqp0C5+6aHyiu0s89Yfy2s6jtjLKC5/zrymSzS8QT8Lc1ITEzC5fcik5gG43KCZwsQRQFWhgGbzcETqMdMLA5PYwAz0Rjc9X6k4gnYHAwEQYBQ4OCocyGXzsDbGMB0NFYcOxfXxtghK8HlWQRC898zi6aWgeLj39Hc1YHJz6PwtwaRik7B6fWUAGVnUvAHmxAbG0cgHELs2xga2lqVpEydqwRIfsD6tlZEv40Vx8px01MJ2J0OBaiQzaKxPVy0lglkKrTQ1KaHzFVm1iEAZmE0C+O/XRjzqRTcgQakYlOw17nApjOgbTbwBfkQFmCxWiFwnNKSZKdn4PT5kE0m4XC7kUulQNG00n4QSYLVbgfHsnD5fMgkk8Wxc3Epi0VpPyRBgC/YPN9+XLx201gd47kr140F9P8e17FQgCCW7IJoEPCKk+avmmwUmXYvvL1hZN5GkX7+Q8m+nrLjtM2Dx3wO9/i0uqcut4H7k/u+3WHYO7yQ8jwit0eUUMetHmy1MOAkCZfZKIRfCWqiEOWg4d4SRO5TEoWJWTUYQjBAu/FGyGNEnC0r8lUToGrUNd7RUyMdzgUwSDq3723mKfoGgXQEIDodX0aeAHeJnT37E2WXxf6oy9/MAAAAAElFTkSuQmCC;strokeColor=none;strokeWidth=0;points=[];labelBackgroundColor=none;rounded=0;html=1;whiteSpace=wrap;" parent="iiWaj7jSBL8KXbxFWDxD-66" vertex="1">
            <mxGeometry x="49.75" y="1027" width="36" height="80" as="geometry" />
          </mxCell>
        </UserObject>
        <UserObject label="" tags="Background" id="iiWaj7jSBL8KXbxFWDxD-89">
          <mxCell style="vsdxID=7;fillColor=none;gradientColor=none;image;aspect=fixed;image=data:image/png,iVBORw0KGgoAAAANSUhEUgAAACQAAABQCAYAAABxs9dPAAAAAXNSR0IArs4c6QAAA9FJREFUaEPtmktME1EUhv87nbbTlr6gQAFbHhqNxkQTRYNRjNH4AkmMC10Yda2JKzcmunCvLt24cSsmGOOWpa8Yja9E4hsliLSlLfQ5nZeZQQplkLY46Yw6s53bc77573/PnDu9pKP7cFCg+RsEpB+AFbpcEieB3KdF/iwJ9ewfIiBHdeFYlFQChki450BBP2VUMhRkIMkI6swxmEDlZoNcvTVkrCk7fv6SsYBMU5cx0d+xyoivqdxi0OS+lIyo4iypUGjHIRDGrRo8kZjWBEQJIgrgXg1XBrS6tx+XTh4rGTz8+h0GH77QB4he16Nd4mUi8e8eV6YQ1dBWEyBxarwyoK5dfWhpUUM9/fBVO9BqPCQDnTq4pyT5++9R3Hn0Uh8gy5qt2iVeJpLw8VllU1YTmt8kWbIOUf6WmjCJiYnKFOra1Q+Ls041eDSS0A60OlP348KJgZLkD95+0s/U9Npt2imxXGF8/7SyKaOaOmoCJEZGKwOS61B7KKQa/GDki3ag1XmoDyf29ZYkH43EdfRQ5ybtlFjOQ19eVTZlNaGppjCaQAsUWPLVYbiXq/zq2Nu9uWTmMiyn3yqTgbo3blBZaeiJelWs2G/V1CHDtbCGa/LlbdCpQ4ta2PEIBh/q1MLKQMFgq8oeujX5httKr3jlaPDDv+PrhwYPuuIQpkLlpDMVMhUqp0C5+6aHyiu0s89Yfy2s6jtjLKC5/zrymSzS8QT8Lc1ITEzC5fcik5gG43KCZwsQRQFWhgGbzcETqMdMLA5PYwAz0Rjc9X6k4gnYHAwEQYBQ4OCocyGXzsDbGMB0NFYcOxfXxtghK8HlWQRC898zi6aWgeLj39Hc1YHJz6PwtwaRik7B6fWUAGVnUvAHmxAbG0cgHELs2xga2lqVpEydqwRIfsD6tlZEv40Vx8px01MJ2J0OBaiQzaKxPVy0lglkKrTQ1KaHzFVm1iEAZmE0C+O/XRjzqRTcgQakYlOw17nApjOgbTbwBfkQFmCxWiFwnNKSZKdn4PT5kE0m4XC7kUulQNG00n4QSYLVbgfHsnD5fMgkk8Wxc3Epi0VpPyRBgC/YPN9+XLx201gd47kr140F9P8e17FQgCCW7IJoEPCKk+avmmwUmXYvvL1hZN5GkX7+Q8m+nrLjtM2Dx3wO9/i0uqcut4H7k/u+3WHYO7yQ8jwit0eUUMetHmy1MOAkCZfZKIRfCWqiEOWg4d4SRO5TEoWJWTUYQjBAu/FGyGNEnC0r8lUToGrUNd7RUyMdzgUwSDq3723mKfoGgXQEIDodX0aeAHeJnT37E2WXxf6oy9/MAAAAAElFTkSuQmCC;strokeColor=none;strokeWidth=0;points=[];labelBackgroundColor=none;rounded=0;html=1;whiteSpace=wrap;" parent="iiWaj7jSBL8KXbxFWDxD-66" vertex="1">
            <mxGeometry x="88.75" y="1027" width="36" height="80" as="geometry" />
          </mxCell>
        </UserObject>
        <UserObject label="" tags="Background" id="iiWaj7jSBL8KXbxFWDxD-90">
          <mxCell style="vsdxID=7;fillColor=none;gradientColor=none;image;aspect=fixed;image=data:image/png,iVBORw0KGgoAAAANSUhEUgAAACQAAABQCAYAAABxs9dPAAAAAXNSR0IArs4c6QAAA9FJREFUaEPtmktME1EUhv87nbbTlr6gQAFbHhqNxkQTRYNRjNH4AkmMC10Yda2JKzcmunCvLt24cSsmGOOWpa8Yja9E4hsliLSlLfQ5nZeZQQplkLY46Yw6s53bc77573/PnDu9pKP7cFCg+RsEpB+AFbpcEieB3KdF/iwJ9ewfIiBHdeFYlFQChki450BBP2VUMhRkIMkI6swxmEDlZoNcvTVkrCk7fv6SsYBMU5cx0d+xyoivqdxi0OS+lIyo4iypUGjHIRDGrRo8kZjWBEQJIgrgXg1XBrS6tx+XTh4rGTz8+h0GH77QB4he16Nd4mUi8e8eV6YQ1dBWEyBxarwyoK5dfWhpUUM9/fBVO9BqPCQDnTq4pyT5++9R3Hn0Uh8gy5qt2iVeJpLw8VllU1YTmt8kWbIOUf6WmjCJiYnKFOra1Q+Ls041eDSS0A60OlP348KJgZLkD95+0s/U9Npt2imxXGF8/7SyKaOaOmoCJEZGKwOS61B7KKQa/GDki3ag1XmoDyf29ZYkH43EdfRQ5ybtlFjOQ19eVTZlNaGppjCaQAsUWPLVYbiXq/zq2Nu9uWTmMiyn3yqTgbo3blBZaeiJelWs2G/V1CHDtbCGa/LlbdCpQ4ta2PEIBh/q1MLKQMFgq8oeujX5httKr3jlaPDDv+PrhwYPuuIQpkLlpDMVMhUqp0C5+6aHyiu0s89Yfy2s6jtjLKC5/zrymSzS8QT8Lc1ITEzC5fcik5gG43KCZwsQRQFWhgGbzcETqMdMLA5PYwAz0Rjc9X6k4gnYHAwEQYBQ4OCocyGXzsDbGMB0NFYcOxfXxtghK8HlWQRC898zi6aWgeLj39Hc1YHJz6PwtwaRik7B6fWUAGVnUvAHmxAbG0cgHELs2xga2lqVpEydqwRIfsD6tlZEv40Vx8px01MJ2J0OBaiQzaKxPVy0lglkKrTQ1KaHzFVm1iEAZmE0C+O/XRjzqRTcgQakYlOw17nApjOgbTbwBfkQFmCxWiFwnNKSZKdn4PT5kE0m4XC7kUulQNG00n4QSYLVbgfHsnD5fMgkk8Wxc3Epi0VpPyRBgC/YPN9+XLx201gd47kr140F9P8e17FQgCCW7IJoEPCKk+avmmwUmXYvvL1hZN5GkX7+Q8m+nrLjtM2Dx3wO9/i0uqcut4H7k/u+3WHYO7yQ8jwit0eUUMetHmy1MOAkCZfZKIRfCWqiEOWg4d4SRO5TEoWJWTUYQjBAu/FGyGNEnC0r8lUToGrUNd7RUyMdzgUwSDq3723mKfoGgXQEIDodX0aeAHeJnT37E2WXxf6oy9/MAAAAAElFTkSuQmCC;strokeColor=none;strokeWidth=0;points=[];labelBackgroundColor=none;rounded=0;html=1;whiteSpace=wrap;" parent="iiWaj7jSBL8KXbxFWDxD-66" vertex="1">
            <mxGeometry x="128.25" y="1027" width="36" height="80" as="geometry" />
          </mxCell>
        </UserObject>
        <UserObject label="" tags="Background" id="iiWaj7jSBL8KXbxFWDxD-91">
          <mxCell style="vsdxID=7;fillColor=none;gradientColor=none;image;aspect=fixed;image=data:image/png,iVBORw0KGgoAAAANSUhEUgAAACQAAABQCAYAAABxs9dPAAAAAXNSR0IArs4c6QAAA9FJREFUaEPtmktME1EUhv87nbbTlr6gQAFbHhqNxkQTRYNRjNH4AkmMC10Yda2JKzcmunCvLt24cSsmGOOWpa8Yja9E4hsliLSlLfQ5nZeZQQplkLY46Yw6s53bc77573/PnDu9pKP7cFCg+RsEpB+AFbpcEieB3KdF/iwJ9ewfIiBHdeFYlFQChki450BBP2VUMhRkIMkI6swxmEDlZoNcvTVkrCk7fv6SsYBMU5cx0d+xyoivqdxi0OS+lIyo4iypUGjHIRDGrRo8kZjWBEQJIgrgXg1XBrS6tx+XTh4rGTz8+h0GH77QB4he16Nd4mUi8e8eV6YQ1dBWEyBxarwyoK5dfWhpUUM9/fBVO9BqPCQDnTq4pyT5++9R3Hn0Uh8gy5qt2iVeJpLw8VllU1YTmt8kWbIOUf6WmjCJiYnKFOra1Q+Ls041eDSS0A60OlP348KJgZLkD95+0s/U9Npt2imxXGF8/7SyKaOaOmoCJEZGKwOS61B7KKQa/GDki3ag1XmoDyf29ZYkH43EdfRQ5ybtlFjOQ19eVTZlNaGppjCaQAsUWPLVYbiXq/zq2Nu9uWTmMiyn3yqTgbo3blBZaeiJelWs2G/V1CHDtbCGa/LlbdCpQ4ta2PEIBh/q1MLKQMFgq8oeujX5httKr3jlaPDDv+PrhwYPuuIQpkLlpDMVMhUqp0C5+6aHyiu0s89Yfy2s6jtjLKC5/zrymSzS8QT8Lc1ITEzC5fcik5gG43KCZwsQRQFWhgGbzcETqMdMLA5PYwAz0Rjc9X6k4gnYHAwEQYBQ4OCocyGXzsDbGMB0NFYcOxfXxtghK8HlWQRC898zi6aWgeLj39Hc1YHJz6PwtwaRik7B6fWUAGVnUvAHmxAbG0cgHELs2xga2lqVpEydqwRIfsD6tlZEv40Vx8px01MJ2J0OBaiQzaKxPVy0lglkKrTQ1KaHzFVm1iEAZmE0C+O/XRjzqRTcgQakYlOw17nApjOgbTbwBfkQFmCxWiFwnNKSZKdn4PT5kE0m4XC7kUulQNG00n4QSYLVbgfHsnD5fMgkk8Wxc3Epi0VpPyRBgC/YPN9+XLx201gd47kr140F9P8e17FQgCCW7IJoEPCKk+avmmwUmXYvvL1hZN5GkX7+Q8m+nrLjtM2Dx3wO9/i0uqcut4H7k/u+3WHYO7yQ8jwit0eUUMetHmy1MOAkCZfZKIRfCWqiEOWg4d4SRO5TEoWJWTUYQjBAu/FGyGNEnC0r8lUToGrUNd7RUyMdzgUwSDq3723mKfoGgXQEIDodX0aeAHeJnT37E2WXxf6oy9/MAAAAAElFTkSuQmCC;strokeColor=none;strokeWidth=0;points=[];labelBackgroundColor=none;rounded=0;html=1;whiteSpace=wrap;" parent="iiWaj7jSBL8KXbxFWDxD-66" vertex="1">
            <mxGeometry x="169" y="1027" width="36" height="80" as="geometry" />
          </mxCell>
        </UserObject>
        <mxCell id="iiWaj7jSBL8KXbxFWDxD-105" value="" style="endArrow=classic;html=1;rounded=0;entryX=0.502;entryY=-0.007;entryDx=0;entryDy=0;entryPerimeter=0;strokeWidth=2;endSize=5;startSize=5;" parent="iiWaj7jSBL8KXbxFWDxD-66" target="iiWaj7jSBL8KXbxFWDxD-93" edge="1">
          <mxGeometry width="50" height="50" relative="1" as="geometry">
            <mxPoint x="382" y="742" as="sourcePoint" />
            <mxPoint x="432" y="692" as="targetPoint" />
          </mxGeometry>
        </mxCell>
        <mxCell id="VuYwsjZh1FK1wvgzzFoD-2" value="" style="endArrow=classic;html=1;rounded=0;" parent="iiWaj7jSBL8KXbxFWDxD-66" edge="1">
          <mxGeometry width="50" height="50" relative="1" as="geometry">
            <mxPoint x="439" y="660" as="sourcePoint" />
            <mxPoint x="537" y="660" as="targetPoint" />
          </mxGeometry>
        </mxCell>
        <mxCell id="VuYwsjZh1FK1wvgzzFoD-4" value="" style="endArrow=classic;html=1;rounded=0;entryX=0.813;entryY=-0.001;entryDx=0;entryDy=0;entryPerimeter=0;" parent="iiWaj7jSBL8KXbxFWDxD-66" target="iiWaj7jSBL8KXbxFWDxD-93" edge="1">
          <mxGeometry width="50" height="50" relative="1" as="geometry">
            <mxPoint x="609" y="744" as="sourcePoint" />
            <mxPoint x="659" y="694" as="targetPoint" />
          </mxGeometry>
        </mxCell>
        <UserObject label="&lt;div style=&quot;font-size: 1px&quot;&gt;&lt;p style=&quot;text-align:center;margin-left:0;margin-right:0;margin-top:0px;margin-bottom:0px;text-indent:0;vertical-align:middle;direction:ltr;&quot;&gt;&lt;font style=&quot;font-size:12px;font-family:0;color:#000000;direction:ltr;letter-spacing:0px;line-height:120%;opacity:1&quot;&gt;端口：8081&lt;/font&gt;&lt;/p&gt;&lt;/div&gt;" tags="Background" id="VuYwsjZh1FK1wvgzzFoD-72">
          <mxCell style="verticalAlign=middle;align=center;overflow=width;vsdxID=38;fillColor=none;gradientColor=none;shape=stencil(nZBLDoAgDERP0z3SI/i5B4koRAWC+Lu9kMaIxpW7mfZNkw5gOSvhJHA2B28Huek2KMAKONdGSa9DVIA1YNlZL3tvF9OSdyKRSU12TRd2yrGU4OzIXUPgqE0GFuw3evlP+Df6AKO4P6Ry8t27jTiiJrE+AQ==);strokeColor=#000000;strokeWidth=2;spacingTop=-3;spacingBottom=-3;spacingLeft=-3;spacingRight=-3;points=[];labelBackgroundColor=none;rounded=0;html=1;whiteSpace=wrap;opacity=0;" parent="iiWaj7jSBL8KXbxFWDxD-66" vertex="1">
            <mxGeometry x="557" y="580" width="102" height="40" as="geometry" />
          </mxCell>
        </UserObject>
        <UserObject label="&lt;div style=&quot;font-size: 1px&quot;&gt;&lt;p style=&quot;text-align:center;margin-left:0;margin-right:0;margin-top:0px;margin-bottom:0px;text-indent:0;vertical-align:middle;direction:ltr;&quot;&gt;&lt;span style=&quot;font-size: 12px;&quot;&gt;端口：38880、8880&lt;/span&gt;&lt;br&gt;&lt;/p&gt;&lt;/div&gt;" tags="Background" id="VuYwsjZh1FK1wvgzzFoD-75">
          <mxCell style="verticalAlign=middle;align=center;overflow=width;vsdxID=38;fillColor=none;gradientColor=none;shape=stencil(nZBLDoAgDERP0z3SI/i5B4koRAWC+Lu9kMaIxpW7mfZNkw5gOSvhJHA2B28Huek2KMAKONdGSa9DVIA1YNlZL3tvF9OSdyKRSU12TRd2yrGU4OzIXUPgqE0GFuw3evlP+Df6AKO4P6Ry8t27jTiiJrE+AQ==);strokeColor=#000000;strokeWidth=2;spacingTop=-3;spacingBottom=-3;spacingLeft=-3;spacingRight=-3;points=[];labelBackgroundColor=none;rounded=0;html=1;whiteSpace=wrap;opacity=0;" parent="iiWaj7jSBL8KXbxFWDxD-66" vertex="1">
            <mxGeometry x="204" y="580" width="118" height="40" as="geometry" />
          </mxCell>
        </UserObject>
        <UserObject label="&lt;div style=&quot;font-size: 1px&quot;&gt;&lt;p style=&quot;text-align:center;margin-left:0;margin-right:0;margin-top:0px;margin-bottom:0px;text-indent:0;vertical-align:middle;direction:ltr;&quot;&gt;&lt;font style=&quot;font-size:12px;font-family:0;color:#000000;direction:ltr;letter-spacing:0px;line-height:120%;opacity:1&quot;&gt;端口：8880&lt;/font&gt;&lt;/p&gt;&lt;/div&gt;" tags="Background" id="VuYwsjZh1FK1wvgzzFoD-76">
          <mxCell style="verticalAlign=middle;align=center;overflow=width;vsdxID=38;fillColor=none;gradientColor=none;shape=stencil(nZBLDoAgDERP0z3SI/i5B4koRAWC+Lu9kMaIxpW7mfZNkw5gOSvhJHA2B28Huek2KMAKONdGSa9DVIA1YNlZL3tvF9OSdyKRSU12TRd2yrGU4OzIXUPgqE0GFuw3evlP+Df6AKO4P6Ry8t27jTiiJrE+AQ==);strokeColor=#000000;strokeWidth=2;spacingTop=-3;spacingBottom=-3;spacingLeft=-3;spacingRight=-3;points=[];labelBackgroundColor=none;rounded=0;html=1;whiteSpace=wrap;opacity=0;" parent="iiWaj7jSBL8KXbxFWDxD-66" vertex="1">
            <mxGeometry x="329.5" y="580" width="102" height="40" as="geometry" />
          </mxCell>
        </UserObject>
        <mxCell id="VuYwsjZh1FK1wvgzzFoD-77" value="" style="endArrow=classic;html=1;rounded=0;entryX=0.436;entryY=0.15;entryDx=0;entryDy=0;entryPerimeter=0;" parent="iiWaj7jSBL8KXbxFWDxD-66" target="VuYwsjZh1FK1wvgzzFoD-76" edge="1">
          <mxGeometry width="50" height="50" relative="1" as="geometry">
            <mxPoint x="374" y="529" as="sourcePoint" />
            <mxPoint x="271" y="586" as="targetPoint" />
          </mxGeometry>
        </mxCell>
        <UserObject label="&lt;div style=&quot;font-size: 1px&quot;&gt;&lt;p style=&quot;text-align:center;margin-left:0;margin-right:0;margin-top:0px;margin-bottom:0px;text-indent:0;vertical-align:middle;direction:ltr;&quot;&gt;&lt;font style=&quot;font-size:12px;font-family:0;color:#000000;direction:ltr;letter-spacing:0px;line-height:120%;opacity:1&quot;&gt;端口：80&lt;/font&gt;&lt;/p&gt;&lt;/div&gt;" tags="Background" id="KPZRfF8u0TTVJFg7FFug-1">
          <mxCell style="verticalAlign=middle;align=center;overflow=width;vsdxID=38;fillColor=none;gradientColor=none;shape=stencil(nZBLDoAgDERP0z3SI/i5B4koRAWC+Lu9kMaIxpW7mfZNkw5gOSvhJHA2B28Huek2KMAKONdGSa9DVIA1YNlZL3tvF9OSdyKRSU12TRd2yrGU4OzIXUPgqE0GFuw3evlP+Df6AKO4P6Ry8t27jTiiJrE+AQ==);strokeColor=#000000;strokeWidth=2;spacingTop=-3;spacingBottom=-3;spacingLeft=-3;spacingRight=-3;points=[];labelBackgroundColor=none;rounded=0;html=1;whiteSpace=wrap;opacity=0;" vertex="1" parent="1">
            <mxGeometry x="435" y="373" width="102" height="40" as="geometry" />
          </mxCell>
        </UserObject>
      </root>
    </mxGraphModel>
  </diagram>
</mxfile>
